<svg width="521" height="128" viewBox="0 0 521 128" fill="none" xmlns="http://www.w3.org/2000/svg">
<path d="M35.6869 32.8929C34.5016 37.4649 33.0199 42.2063 31.2419 47.1169C29.5486 52.0276 27.7706 56.6843 25.9079 61.0869C25.8232 61.2563 25.6116 61.6796 25.2729 62.3569C24.9342 62.9496 24.6802 63.2036 24.5109 63.1189C24.2569 63.1189 24.1299 62.7803 24.1299 62.1029C24.2146 61.3409 24.2992 60.8329 24.3839 60.5789C24.4686 59.5629 24.6379 58.2929 24.8919 56.7689C25.1459 55.2449 25.3999 53.6786 25.6539 52.0699C25.9926 50.4613 26.3312 48.8949 26.6699 47.3709C27.0932 45.8469 27.4742 44.5346 27.8129 43.4339C27.9822 43.0953 28.2362 42.2486 28.5749 40.8939C28.9136 39.5393 29.2522 37.9306 29.5909 36.0679C30.0142 34.1206 30.4376 32.0039 30.8609 29.7179C31.2843 27.4319 31.6653 25.1883 32.0039 22.9869L30.4799 22.6059C30.0566 25.5693 29.4216 28.6173 28.5749 31.7499C27.8129 34.7979 26.9239 37.8883 25.9079 41.0209C24.9766 44.0689 24.0452 47.2016 23.1139 50.4189C22.1826 53.5516 21.3359 56.6843 20.5739 59.8169C19.8966 62.7803 19.3886 65.8706 19.0499 69.0879C18.7112 72.3053 18.5842 75.5649 18.6689 78.8669C18.7536 82.0843 19.1346 85.2593 19.8119 88.3919C20.4892 91.4399 21.5052 94.2763 22.8599 96.9009C23.1139 97.4936 23.1986 97.7899 23.1139 97.7899C22.9446 97.7899 22.8176 97.7476 22.7329 97.6629L22.4789 97.4089C20.1082 94.6149 18.3302 91.6093 17.1449 88.3919C16.0442 85.0899 15.3246 81.7033 14.9859 78.2319C14.7319 74.7606 14.8166 71.2469 15.2399 67.6909C15.6632 64.1349 16.2559 60.6636 17.0179 57.2769C18.4572 51.0116 20.1506 45.0003 22.0979 39.2429C24.0452 33.4009 25.6962 27.6859 27.0509 22.0979C21.9709 21.2513 17.1872 20.4893 12.6999 19.8119C8.29725 19.0499 4.19091 19.0499 0.380914 19.8119C0.126914 19.8119 -8.57785e-05 19.7696 -8.57785e-05 19.6849C-8.57785e-05 19.5156 0.0422476 19.4309 0.126914 19.4309C0.296248 19.3463 0.423248 19.2616 0.507914 19.1769C3.38658 17.4836 6.43458 16.5523 9.65191 16.3829C12.9539 16.2136 16.3406 16.3829 19.8119 16.8909C23.3679 17.3143 26.9662 17.9069 30.6069 18.6689C34.3322 19.3463 38.0576 19.7273 41.7829 19.8119C44.0689 19.8966 46.4396 19.7273 48.8949 19.3039C51.4349 18.7959 53.8479 18.0763 56.1339 17.1449C58.5046 16.1289 60.6213 14.8166 62.4839 13.2079C64.4313 11.5993 65.9976 9.69427 67.1829 7.49294C67.3522 7.0696 67.5216 6.85793 67.6909 6.85793V7.23893V7.49294C66.7596 10.7103 65.3202 13.3773 63.3729 15.4939C61.4256 17.5259 59.1819 19.1769 56.6419 20.4469C54.1866 21.7169 51.5196 22.6059 48.6409 23.1139C45.8469 23.5373 43.0952 23.7066 40.3859 23.6219C40.8092 26.2466 40.8092 29.2946 40.3859 32.7659C40.0472 36.2373 39.4969 39.7509 38.7349 43.3069C37.9729 46.8629 37.1686 50.2496 36.3219 53.4669C35.4752 56.5996 34.7979 59.1396 34.2899 61.0869C33.2739 65.1509 32.0886 69.2996 30.7339 73.5329C29.3792 77.7663 28.1516 81.4916 27.0509 84.7089C26.8816 85.1323 26.6699 85.5133 26.4159 85.8519C26.2466 86.1906 26.0772 86.3176 25.9079 86.2329C25.7386 86.1483 25.6539 85.9366 25.6539 85.5979C25.7386 85.1746 25.7809 84.7513 25.7809 84.3279C26.0349 77.9779 26.9662 71.6279 28.5749 65.2779C30.1836 58.9279 31.9192 52.5356 33.7819 46.1009C34.7979 42.5449 35.7716 38.9466 36.7029 35.3059C37.7189 31.6653 38.4386 27.7706 38.8619 23.6219C38.4386 23.5373 38.0576 23.4949 37.7189 23.4949C37.4649 23.4949 37.1263 23.4949 36.7029 23.4949C36.7029 25.1883 36.6183 26.8393 36.4489 28.4479C36.3642 30.0566 36.1102 31.5383 35.6869 32.8929ZM39.1159 5.84193C42.4179 6.26527 45.7623 6.60393 49.1489 6.85793C52.5356 7.11193 55.4566 7.23893 57.9119 7.23893C58.7586 7.23893 59.1819 7.36593 59.1819 7.61993C59.1819 7.9586 58.7586 8.25493 57.9119 8.50893C53.5939 10.2023 49.0219 10.9643 44.1959 10.7949C39.4546 10.6256 34.6286 10.1599 29.7179 9.39793C26.7546 8.9746 23.7066 8.55127 20.5739 8.12793C17.4412 7.7046 14.0546 7.7046 10.4139 8.12793C10.0752 8.2126 9.90591 8.17026 9.90591 8.00093C9.90591 7.8316 9.99058 7.7046 10.1599 7.61993C10.3292 7.53527 10.4986 7.40827 10.6679 7.23893C12.2766 6.0536 14.3509 5.2916 16.8909 4.95293C19.4309 4.5296 22.0556 4.36026 24.7649 4.44493C27.5589 4.44493 30.2259 4.61426 32.7659 4.95293C35.3059 5.2916 37.4226 5.58793 39.1159 5.84193ZM20.0659 9.77893C23.6219 10.2869 27.2202 10.9219 30.8609 11.6839C34.5863 12.4459 38.1846 13.2926 41.6559 14.2239C41.8252 14.3933 42.1639 14.5626 42.6719 14.7319C43.2646 14.8166 43.5609 14.9859 43.5609 15.2399C43.5609 15.4093 43.3069 15.5363 42.7989 15.6209C42.2909 15.7056 41.9099 15.8326 41.6559 16.0019C40.8939 16.1713 39.9202 16.2559 38.7349 16.2559C37.6342 16.2559 36.4489 16.2559 35.1789 16.2559C33.9936 16.1713 32.8082 16.0866 31.6229 16.0019C30.4376 15.9173 29.4216 15.7903 28.5749 15.6209C27.9822 15.5363 26.5006 15.3669 24.1299 15.1129C21.8439 14.8589 19.3039 14.6896 16.5099 14.6049C13.7159 14.5203 11.0066 14.5626 8.38191 14.7319C5.84191 14.8166 4.02158 15.1553 2.92091 15.7479C2.58225 15.9173 2.37058 16.0019 2.28591 16.0019H2.15891C2.15891 15.6633 2.32825 15.3246 2.66691 14.9859C3.51358 13.8853 4.65658 12.9539 6.09591 12.1919C7.61991 11.4299 9.18625 10.8373 10.7949 10.4139C12.4036 9.99059 14.0122 9.7366 15.6209 9.65193C17.3142 9.56726 18.7959 9.6096 20.0659 9.77893ZM24.2569 88.3919C24.5109 89.8313 24.8072 91.2706 25.1459 92.7099C25.5692 94.1493 26.0772 95.5463 26.6699 96.9009C27.0086 97.5783 27.0509 97.9169 26.7969 97.9169C26.6276 97.9169 26.3736 97.8323 26.0349 97.6629C25.8656 97.5783 25.7386 97.4513 25.6539 97.2819C24.5532 96.0119 23.6642 94.8266 22.9869 93.7259C22.3942 92.6253 21.8862 90.8473 21.4629 88.3919C21.2936 87.4606 21.1666 86.2753 21.0819 84.8359C21.0819 83.3966 21.1242 81.9996 21.2089 80.6449C21.2936 79.2903 21.4206 78.1473 21.5899 77.2159C21.7592 76.2846 22.0132 75.8189 22.3519 75.8189C22.4366 75.8189 22.5212 76.0306 22.6059 76.4539C22.7752 76.8773 22.9022 77.3853 22.9869 77.9779C23.0716 78.4859 23.1562 79.0363 23.2409 79.6289C23.3256 80.1369 23.3679 80.4756 23.3679 80.6449C23.5372 82.0843 23.6642 83.4389 23.7489 84.7089C23.9182 85.9789 24.0876 87.2066 24.2569 88.3919ZM61.0869 8.88993C62.9496 7.28127 64.5159 5.5456 65.7859 3.68293C65.9553 3.34426 66.1246 3.17493 66.2939 3.17493C66.3786 3.17493 66.4209 3.47126 66.4209 4.06393C66.4209 4.4026 66.3786 4.69893 66.2939 4.95293C65.9552 6.39226 65.5742 7.53527 65.1509 8.38193C64.7276 9.2286 63.7116 10.2446 62.1029 11.4299C61.5103 11.9379 60.7059 12.4459 59.6899 12.9539C58.6739 13.3773 57.7003 13.7583 56.7689 14.0969C55.8376 14.4356 54.9909 14.6473 54.2289 14.7319C53.5516 14.7319 53.1706 14.5626 53.0859 14.2239C53.0859 14.1393 53.2129 14.0123 53.4669 13.8429C53.7209 13.5889 54.0173 13.3349 54.3559 13.0809C54.7793 12.8269 55.1603 12.6153 55.4989 12.4459C55.8376 12.1919 56.0916 12.0226 56.2609 11.9379C57.1076 11.5146 57.9119 11.0489 58.6739 10.5409C59.5206 10.0329 60.3249 9.4826 61.0869 8.88993ZM87.7946 45.5929C88.472 46.4396 88.98 47.4979 89.3186 48.7679C89.742 50.0379 89.9113 51.4349 89.8266 52.9589C89.742 54.3983 89.4033 55.9223 88.8106 57.5309C88.218 59.1396 87.2866 60.7059 86.0166 62.2299C83.5613 65.1086 80.852 67.3523 77.8886 68.9609C75.01 70.4849 72.3853 71.2469 70.0146 71.2469C68.5753 71.2469 68.5753 70.9929 70.0146 70.4849C70.7766 70.2309 71.6656 69.8499 72.6816 69.3419C73.7823 68.7493 74.9253 68.0719 76.1106 67.3099C77.296 66.4633 78.4813 65.4896 79.6666 64.3889C80.9366 63.2883 82.0796 62.0183 83.0956 60.5789C84.789 58.2083 85.7626 55.9223 86.0166 53.7209C86.3553 51.4349 85.932 49.6993 84.7466 48.5139C83.7306 47.4979 82.5453 46.9476 81.1906 46.8629C79.836 46.6936 77.804 47.4133 75.0946 49.0219C72.6393 50.4613 70.438 52.2393 68.4906 54.3559C66.5433 56.4726 64.723 58.7163 63.0296 61.0869C62.0983 62.2723 61.4633 62.8649 61.1246 62.8649C60.8706 62.8649 60.9976 62.1029 61.5056 60.5789C62.5216 57.6156 63.9186 54.8639 65.6966 52.3239C67.5593 49.7839 69.7606 47.6249 72.3006 45.8469C74.1633 44.5769 75.8566 43.6879 77.3806 43.1799C78.9893 42.6719 80.4286 42.4603 81.6986 42.5449C83.0533 42.6296 84.2386 42.9683 85.2546 43.5609C86.2706 44.0689 87.1173 44.7463 87.7946 45.5929ZM94.6526 54.4829C94.314 56.5149 93.7636 58.2506 93.0016 59.6899C92.3243 61.0446 91.52 62.2299 90.5886 63.2459C89.742 64.1773 88.853 64.9393 87.9216 65.5319C87.075 66.1246 86.313 66.6749 85.6356 67.1829C85.297 67.4369 85.043 67.4793 84.8736 67.3099C84.7043 67.1406 84.8313 66.8443 85.2546 66.4209C86.7786 65.1509 88.3026 63.4576 89.8266 61.3409C91.4353 59.1396 92.282 56.7266 92.3666 54.1019C92.3666 49.6146 91.266 46.1856 89.0646 43.8149C86.8633 41.4443 84.1116 40.4283 80.8096 40.7669C77.5076 41.0209 74.0786 42.2909 70.5226 44.5769C68.2366 46.0163 66.2046 47.7096 64.4266 49.6569C62.7333 51.5196 61.2516 53.5516 59.9816 55.7529C58.7116 57.8696 57.6533 60.0709 56.8066 62.3569C56.0446 64.6429 55.4943 66.9289 55.1556 69.2149C54.817 71.4163 54.4783 73.7869 54.1396 76.3269C53.8856 78.8669 53.8856 81.3646 54.1396 83.8199C54.4783 86.2753 55.2826 88.6459 56.5526 90.9319C57.8226 93.1333 59.8123 95.0383 62.5216 96.6469C62.945 96.9009 63.3683 97.0703 63.7916 97.1549C64.2996 97.2396 64.5536 97.3243 64.5536 97.4089C64.5536 97.5783 64.342 97.6629 63.9186 97.6629C63.4953 97.7476 63.0296 97.7053 62.5216 97.5359C60.405 97.1126 58.5846 96.2659 57.0606 94.9959C55.6213 93.6413 54.436 92.1173 53.5046 90.4239C52.5733 88.7306 51.8536 86.9526 51.3456 85.0899C50.8376 83.2273 50.5413 81.5339 50.4566 80.0099C49.9486 73.3213 50.88 66.7173 53.2506 60.1979C53.7586 58.8433 54.3936 57.3193 55.1556 55.6259C56.0023 53.9326 57.0183 52.2393 58.2036 50.5459C59.389 48.7679 60.786 47.0746 62.3946 45.4659C64.0033 43.7726 65.8236 42.2909 67.8556 41.0209C69.803 39.8356 71.835 38.9466 73.9516 38.3539C76.0683 37.7613 78.185 37.5073 80.3016 37.5919C82.4183 37.5919 84.408 37.9729 86.2706 38.7349C88.1333 39.4123 89.7843 40.4706 91.2236 41.9099C92.4936 43.2646 93.4673 45.0003 94.1446 47.1169C94.9066 49.2336 95.076 51.6889 94.6526 54.4829ZM83.0956 49.9109C84.1116 51.0963 84.2386 52.9589 83.4766 55.4989C82.7146 57.9543 80.9366 60.4519 78.1426 62.9919C76.6186 64.4313 75.137 65.6166 73.6976 66.5479C72.2583 67.3946 70.438 68.1566 68.2366 68.8339C67.3053 72.0513 66.7126 75.2263 66.4586 78.3589C66.2046 81.4916 66.2893 84.0316 66.7126 85.9789C66.7973 86.7409 67.0513 87.5029 67.4746 88.2649C67.9826 88.9423 68.66 89.4926 69.5066 89.9159C70.438 90.2546 71.6233 90.3816 73.0626 90.2969C74.502 90.2123 76.28 89.7466 78.3966 88.8999C78.9893 88.6459 79.328 88.6036 79.4126 88.7729C79.582 88.8576 79.328 89.1116 78.6506 89.5349C77.1266 90.7203 75.518 91.5669 73.8246 92.0749C72.1313 92.4983 70.5226 92.6253 68.9986 92.4559C67.5593 92.2866 66.2893 91.7786 65.1886 90.9319C64.1726 90.0853 63.4953 88.9423 63.1566 87.5029C62.4793 84.5396 62.183 81.4493 62.2676 78.2319C62.3523 75.0146 62.818 71.8396 63.6646 68.7069C64.596 65.5743 65.866 62.6533 67.4746 59.9439C69.168 57.1499 71.2423 54.7793 73.6976 52.8319C78.2696 49.1913 81.4023 48.2176 83.0956 49.9109ZM81.8256 90.4239C81.233 91.2706 80.471 92.1173 79.5396 92.9639C78.693 93.7259 77.677 94.4456 76.4916 95.1229C75.391 95.7156 74.2056 96.2236 72.9356 96.6469C71.7503 97.0703 70.5226 97.2819 69.2526 97.2819C67.0513 97.2819 64.977 96.8163 63.0296 95.8849C61.167 94.8689 59.7276 92.8793 58.7116 89.9159C58.5423 89.5773 58.4576 89.2809 58.4576 89.0269C58.4576 88.6883 58.5423 88.5189 58.7116 88.5189C59.0503 88.3496 59.389 88.4766 59.7276 88.8999C60.0663 89.2386 60.405 89.6196 60.7436 90.0429C61.675 91.1436 62.8603 92.1173 64.2996 92.9639C65.8236 93.8106 67.263 94.2339 68.6176 94.2339C71.1576 94.2339 73.359 93.8529 75.2216 93.0909C77.0843 92.3289 78.8623 91.3129 80.5556 90.0429C80.979 89.7889 81.4446 89.5349 81.9526 89.2809C82.5453 89.0269 82.503 89.4079 81.8256 90.4239ZM80.0476 53.3399C79.709 52.6626 78.4813 53.2129 76.3646 54.9909C74.4173 56.5149 72.851 58.2929 71.6656 60.3249C70.565 62.2723 69.5913 64.4313 68.7446 66.8019C70.3533 66.0399 71.835 65.1933 73.1896 64.2619C74.5443 63.2459 75.8143 62.2723 76.9996 61.3409C78.2696 60.2403 79.201 58.8009 79.7936 57.0229C80.3863 55.2449 80.471 54.0173 80.0476 53.3399ZM118.116 31.2419C116.846 36.5759 115.153 41.9523 113.036 47.3709C110.919 52.7049 108.845 57.7426 106.813 62.4839C106.728 62.6533 106.517 63.1189 106.178 63.8809C105.839 64.5583 105.585 64.8969 105.416 64.8969C105.162 64.7276 105.077 64.3043 105.162 63.6269C105.247 62.8649 105.289 62.3569 105.289 62.1029C105.458 60.9176 105.712 59.4783 106.051 57.7849C106.39 56.0069 106.771 54.2289 107.194 52.4509C107.702 50.5883 108.168 48.7679 108.591 46.9899C109.014 45.2119 109.438 43.7303 109.861 42.5449C110.708 39.7509 111.554 36.4913 112.401 32.7659C113.248 29.0406 113.925 25.3153 114.433 21.5899C114.941 17.8646 115.195 14.4356 115.195 11.3029C115.28 8.0856 114.899 5.71493 114.052 4.19093C113.629 3.5136 113.544 3.09026 113.798 2.92093C114.137 2.7516 114.56 2.92093 115.068 3.42893C116.338 4.69893 117.269 6.51927 117.862 8.88993C118.539 11.2606 118.963 13.8006 119.132 16.5099C119.301 19.1346 119.301 21.8016 119.132 24.5109C118.963 27.1356 118.624 29.3793 118.116 31.2419ZM115.195 62.2299C114.518 64.3466 113.883 66.5479 113.29 68.8339C112.697 71.0353 112.147 73.1943 111.639 75.3109C111.131 77.4276 110.708 79.4596 110.369 81.4069C110.115 83.2696 109.988 84.9629 109.988 86.4869C109.988 87.5029 109.861 88.0533 109.607 88.1379C109.353 88.1379 109.057 87.5876 108.718 86.4869C107.871 83.4389 107.533 80.2639 107.702 76.9619C107.956 73.6599 108.464 70.3156 109.226 66.9289C110.073 63.4576 111.046 59.9863 112.147 56.5149C113.332 53.0436 114.475 49.5723 115.576 46.1009C117.015 41.6983 118.37 36.7876 119.64 31.3689C120.91 25.9503 121.46 20.5316 121.291 15.1129C121.291 14.4356 121.418 14.2239 121.672 14.4779C121.926 14.7319 122.095 14.9859 122.18 15.2399C122.942 16.8486 123.365 18.9229 123.45 21.4629C123.619 24.0029 123.492 26.7969 123.069 29.8449C122.73 32.8083 122.18 35.8986 121.418 39.1159C120.741 42.2486 120.021 45.2966 119.259 48.2599C118.497 51.1386 117.735 53.8056 116.973 56.2609C116.211 58.7163 115.618 60.7059 115.195 62.2299ZM112.782 97.0279C113.29 97.0279 113.544 97.1549 113.544 97.4089C113.375 97.4936 113.248 97.5359 113.163 97.5359H112.782C111.004 97.6206 109.268 97.3243 107.575 96.6469C105.882 95.9696 104.315 95.0383 102.876 93.8529C101.437 92.5829 100.167 91.0589 99.0659 89.2809C98.0499 87.5029 97.2879 85.5133 96.7799 83.3119C95.8485 78.9939 95.5522 74.7183 95.8909 70.4849C96.3142 66.1669 97.0762 62.1029 98.1769 58.2929C99.6162 53.1283 101.14 47.9636 102.749 42.7989C104.442 37.6343 105.924 32.6389 107.194 27.8129C108.549 22.9023 109.522 18.2033 110.115 13.7159C110.708 9.14393 110.665 4.91059 109.988 1.01593C109.819 0.423263 109.861 0.126931 110.115 0.126931C110.284 0.0422659 110.411 0.169267 110.496 0.507934C110.581 0.761931 110.708 0.931262 110.877 1.01593C112.74 5.07993 113.586 9.56726 113.417 14.4779C113.248 19.3039 112.486 24.3416 111.131 29.5909C109.861 34.8403 108.295 40.1743 106.432 45.5929C104.569 50.9269 102.961 56.1339 101.606 61.2139C100.675 64.5159 99.9972 68.0719 99.5739 71.8819C99.2352 75.6073 99.4469 79.2903 100.209 82.9309C100.971 86.7409 102.495 89.9583 104.781 92.5829C107.152 95.2076 109.819 96.6893 112.782 97.0279ZM108.972 90.6779C110.665 92.7946 112.74 93.9799 115.195 94.2339C115.957 94.4033 116.169 94.6573 115.83 94.9959C115.576 95.2499 115.195 95.3769 114.687 95.3769C113.248 95.3769 111.808 95.2076 110.369 94.8689C109.014 94.5303 107.66 93.5989 106.305 92.0749C105.628 91.2283 105.035 90.0853 104.527 88.6459C104.019 87.1219 103.638 85.6403 103.384 84.2009C103.13 82.7616 103.003 81.4916 103.003 80.3909C103.003 79.2903 103.172 78.7399 103.511 78.7399C103.596 78.7399 103.723 78.9939 103.892 79.5019C104.061 79.9253 104.231 80.4333 104.4 81.0259C104.569 81.5339 104.739 82.0843 104.908 82.6769C105.077 83.1849 105.204 83.5659 105.289 83.8199C106.22 86.6139 107.448 88.8999 108.972 90.6779ZM170.187 52.7049C169.51 56.0916 168.367 59.4783 166.758 62.8649C165.149 66.2516 163.625 69.4266 162.186 72.3899C162.101 72.5593 161.89 72.8556 161.551 73.2789C161.297 73.7023 161.085 73.9139 160.916 73.9139C160.662 73.8293 160.535 73.5753 160.535 73.1519C160.535 72.6439 160.535 72.3053 160.535 72.1359C160.62 71.3739 160.747 70.4849 160.916 69.4689C161.17 68.3683 161.382 67.2676 161.551 66.1669C161.72 64.9816 161.89 63.8809 162.059 62.8649C162.313 61.7643 162.567 60.7906 162.821 59.9439C163.583 57.0653 164.218 54.6099 164.726 52.5779C165.234 50.4613 165.615 48.5563 165.869 46.8629C166.123 45.1696 166.25 43.5609 166.25 42.0369C166.335 40.5129 166.25 38.8619 165.996 37.0839C165.911 36.4066 165.954 35.9833 166.123 35.8139C166.292 35.7293 166.504 35.8139 166.758 36.0679C167.012 36.3219 167.224 36.5759 167.393 36.8299C168.832 39.1159 169.806 41.6559 170.314 44.4499C170.822 47.1593 170.78 49.9109 170.187 52.7049ZM173.235 44.1959C174.336 45.8046 174.886 47.9213 174.886 50.5459C174.886 53.1706 174.632 55.8799 174.124 58.6739C173.616 61.3833 172.981 64.0079 172.219 66.5479C171.457 69.0879 170.907 71.1199 170.568 72.6439C169.891 75.6073 168.959 78.5706 167.774 81.5339C166.589 84.4973 165.573 87.1219 164.726 89.4079C164.641 89.6619 164.514 89.9583 164.345 90.2969C164.176 90.5509 164.006 90.6779 163.837 90.6779C163.668 90.6779 163.583 90.5086 163.583 90.1699C163.583 89.8313 163.583 89.5349 163.583 89.2809C163.329 84.6243 163.837 80.0946 165.107 75.6919C166.377 71.2046 167.732 66.6749 169.171 62.1029C170.018 59.3089 170.822 56.4726 171.584 53.5939C172.346 50.6306 172.685 47.4133 172.6 43.9419C172.6 43.6033 172.642 43.4339 172.727 43.4339L173.235 44.1959ZM161.297 42.0369C156.132 44.1536 151.73 47.2016 148.089 51.1809C144.533 55.0756 141.781 59.4783 139.834 64.3889C138.987 66.5903 138.352 68.5799 137.929 70.3579C137.506 72.0513 137.167 73.9139 136.913 75.9459C136.828 76.3693 136.955 76.7926 137.294 77.2159C137.633 77.6393 137.971 77.6393 138.31 77.2159C139.834 75.3533 141.781 72.9826 144.152 70.1039C146.523 67.2253 148.893 64.1773 151.264 60.9599C153.635 57.7426 155.751 54.4829 157.614 51.1809C159.561 47.8789 160.789 44.8309 161.297 42.0369ZM152.788 85.0899C151.518 86.8679 150.29 88.5189 149.105 90.0429C147.92 91.5669 146.607 92.9216 145.168 94.1069C143.729 95.2076 142.12 96.0966 140.342 96.7739C138.564 97.4513 136.532 97.8323 134.246 97.9169C130.436 98.0863 127.515 97.1126 125.483 94.9959C123.536 92.8793 122.181 90.2969 121.419 87.2489C120.657 84.2009 120.361 81.0683 120.53 77.8509C120.784 74.5489 121.25 71.8396 121.927 69.7229C122.858 66.7596 123.959 63.9656 125.229 61.3409C126.584 58.6316 127.981 56.2186 129.42 54.1019C130.944 51.9006 132.468 50.0379 133.992 48.5139C135.601 46.9053 137.167 45.6776 138.691 44.8309C138.776 44.8309 138.945 44.7463 139.199 44.5769C139.538 44.4076 139.707 44.4499 139.707 44.7039C139.792 44.7039 139.749 44.8309 139.58 45.0849C139.411 45.3389 139.241 45.5506 139.072 45.7199C134.669 50.2919 131.156 55.4566 128.531 61.2139C125.991 66.9713 124.552 72.8979 124.213 78.9939C124.128 80.5179 124.171 82.1689 124.34 83.9469C124.594 85.7249 125.017 87.4183 125.61 89.0269C126.287 90.5509 127.219 91.8633 128.404 92.9639C129.589 93.9799 131.198 94.4879 133.23 94.4879C134.839 94.4879 136.32 94.2339 137.675 93.7259C139.03 93.1333 140.3 92.4136 141.485 91.5669C142.67 90.6356 143.729 89.6619 144.66 88.6459C145.676 87.5453 146.565 86.5293 147.327 85.5979C149.02 83.4813 150.587 81.2799 152.026 78.9939C152.026 77.3006 152.111 75.6496 152.28 74.0409C152.534 72.4323 152.873 70.8236 153.296 69.2149C153.55 68.0296 153.762 67.0983 153.931 66.4209C154.185 65.6589 154.397 64.9816 154.566 64.3889C154.82 63.7116 155.032 63.0343 155.201 62.3569C155.455 61.5949 155.794 60.6213 156.217 59.4359C154.862 61.8066 153.508 64.0503 152.153 66.1669C150.883 68.1989 149.486 70.1886 147.962 72.1359C146.523 73.9986 144.999 75.8613 143.39 77.7239C141.866 79.5019 140.173 81.3223 138.31 83.1849C136.871 84.6243 135.685 85.0899 134.754 84.5819C133.823 84.0739 133.272 82.8886 133.103 81.0259C132.934 78.1473 133.061 75.3533 133.484 72.6439C133.992 69.9346 134.839 67.0983 136.024 64.1349C137.125 61.4256 138.479 58.8009 140.088 56.2609C141.781 53.7209 143.686 51.4349 145.803 49.4029C148.004 47.2863 150.417 45.5083 153.042 44.0689C155.667 42.5449 158.461 41.5289 161.424 41.0209C161.593 40.0896 161.72 39.2853 161.805 38.6079C161.974 37.9306 162.101 37.2533 162.186 36.5759C162.355 35.6446 162.44 35.1789 162.44 35.1789C162.609 35.0943 162.779 35.1789 162.948 35.4329C163.202 35.6869 163.414 36.0256 163.583 36.4489C164.599 39.2429 164.938 42.0369 164.599 44.8309C164.26 47.6249 163.625 50.4613 162.694 53.3399C161.847 56.2186 160.831 59.1819 159.646 62.2299C158.461 65.1933 157.487 68.1989 156.725 71.2469C155.709 75.5649 155.413 80.0523 155.836 84.7089C156.344 89.2809 158.164 93.4296 161.297 97.1549C161.551 97.4936 161.678 97.6629 161.678 97.6629C161.593 97.7476 161.339 97.6629 160.916 97.4089C158.461 95.8849 156.598 94.0646 155.328 91.9479C154.143 89.7466 153.296 87.4606 152.788 85.0899ZM157.233 40.1319C157.402 40.3013 157.36 40.4283 157.106 40.5129C156.937 40.5976 156.513 40.7246 155.836 40.8939C154.735 41.2326 153.381 41.8676 151.772 42.7989C150.248 43.7303 148.597 44.9156 146.819 46.3549C145.126 47.7943 143.432 49.4876 141.739 51.4349C140.046 53.2976 138.564 55.3296 137.294 57.5309C136.024 59.8169 134.923 62.0606 133.992 64.2619C133.145 66.4633 132.426 68.4953 131.833 70.3579C131.325 72.1359 130.944 73.7023 130.69 75.0569C130.436 76.3269 130.309 77.2159 130.309 77.7239C130.309 78.9939 130.309 80.3486 130.309 81.7879C130.309 83.1426 130.478 84.3703 130.817 85.4709C131.156 86.5716 131.748 87.4183 132.595 88.0109C133.442 88.6036 134.712 88.7729 136.405 88.5189C136.49 88.5189 136.701 88.4766 137.04 88.3919C137.379 88.2226 137.717 88.0956 138.056 88.0109C138.395 87.8416 138.691 87.7146 138.945 87.6299C139.284 87.5453 139.495 87.5029 139.58 87.5029C139.665 87.6723 139.58 87.8839 139.326 88.1379C139.157 88.3919 138.903 88.6883 138.564 89.0269C138.225 89.2809 137.887 89.5349 137.548 89.7889C137.294 90.0429 137.125 90.2123 137.04 90.2969C134.923 91.5669 133.145 91.9479 131.706 91.4399C130.267 90.9319 129.124 90.0006 128.277 88.6459C127.515 87.2066 126.965 85.5556 126.626 83.6929C126.372 81.7456 126.287 80.0099 126.372 78.4859C126.541 75.5226 127.007 72.6016 127.769 69.7229C128.531 66.7596 129.505 63.7963 130.69 60.8329C131.621 58.5469 133.018 56.2186 134.881 53.8479C136.744 51.3926 138.818 49.1489 141.104 47.1169C143.475 45.0849 145.93 43.4339 148.47 42.1639C151.01 40.8093 153.465 40.0896 155.836 40.0049C156.683 40.0049 157.148 40.0473 157.233 40.1319ZM164.726 97.1549C164.895 97.4089 164.938 97.5783 164.853 97.6629C164.599 97.6629 164.26 97.5783 163.837 97.4089C163.583 97.2396 162.906 96.7316 161.805 95.8849C160.704 95.0383 159.9 93.6836 159.392 91.8209C159.223 91.1436 159.053 90.2969 158.884 89.2809C158.799 88.1803 158.757 87.1643 158.757 86.2329C158.757 85.3016 158.799 84.4973 158.884 83.8199C159.053 83.1426 159.265 82.8039 159.519 82.8039C159.773 82.8039 160.027 83.3119 160.281 84.3279C160.62 85.3439 160.831 85.9789 160.916 86.2329C161.17 87.4183 161.382 88.4766 161.551 89.4079C161.805 90.2546 162.059 91.0589 162.313 91.8209C162.652 92.7523 163.075 93.8106 163.583 94.9959C164.176 96.1813 164.557 96.9009 164.726 97.1549ZM190.313 50.5459C190.398 49.7839 190.652 48.8949 191.075 47.8789C191.499 46.7783 192.049 45.7623 192.726 44.8309C193.488 43.8149 194.377 42.9259 195.393 42.1639C196.409 41.3173 197.552 40.7669 198.822 40.5129C201.532 40.0049 203.775 40.1743 205.553 41.0209C207.331 41.8676 208.686 42.8413 209.617 43.9419C209.956 44.4499 210.083 44.7463 209.998 44.8309C209.829 45.0003 209.533 44.9579 209.109 44.7039C208.601 44.3653 207.755 44.0689 206.569 43.8149C205.469 43.5609 204.241 43.5186 202.886 43.6879C201.616 43.7726 200.346 44.1536 199.076 44.8309C197.891 45.5083 196.917 46.6089 196.155 48.1329C195.478 49.5723 195.012 51.0539 194.758 52.5779C194.504 54.1019 194.335 55.5413 194.25 56.8959C194.25 58.1659 194.293 59.2666 194.377 60.1979C194.462 61.1293 194.504 61.7643 194.504 62.1029C194.674 63.0343 194.801 64.2196 194.885 65.6589C195.055 67.0136 195.139 68.4106 195.139 69.8499C195.139 71.2893 195.097 72.7286 195.012 74.1679C194.928 75.5226 194.758 76.7079 194.504 77.7239C194.42 77.9779 194.293 78.4013 194.123 78.9939C194.039 79.5866 193.912 79.8829 193.742 79.8829C193.319 79.8829 193.107 79.5866 193.107 78.9939C193.107 78.4013 193.107 77.9779 193.107 77.7239C192.938 75.6073 192.642 73.4906 192.218 71.3739C191.795 69.1726 191.372 66.9289 190.948 64.6429C190.61 62.3569 190.356 60.0709 190.186 57.7849C190.017 55.4143 190.059 53.0013 190.313 50.5459ZM185.868 75.6919C185.953 73.9986 185.784 71.6279 185.36 68.5799C185.022 65.4473 184.895 61.8489 184.979 57.7849C185.064 55.6683 185.276 53.5093 185.614 51.3079C185.953 49.0219 186.757 46.7783 188.027 44.5769C189.382 42.2063 191.075 40.4706 193.107 39.3699C195.224 38.1846 197.044 37.6343 198.568 37.7189C198.822 37.7189 199.076 37.7189 199.33 37.7189C199.584 37.7189 199.711 37.7613 199.711 37.8459C199.711 38.0153 199.669 38.0999 199.584 38.0999C199.5 38.0153 199.203 38.0576 198.695 38.2269C197.171 38.6503 195.817 39.3699 194.631 40.3859C193.446 41.3173 192.43 42.4179 191.583 43.6879C190.737 44.9579 190.059 46.2703 189.551 47.6249C189.043 48.9796 188.747 50.2073 188.662 51.3079C188.154 55.9646 188.197 60.0286 188.789 63.4999C189.213 66.2939 189.551 69.2149 189.805 72.2629C190.059 75.2263 189.932 77.9779 189.424 80.5179C189.001 82.9733 188.112 85.0476 186.757 86.7409C185.487 88.3496 183.498 89.2386 180.788 89.4079C180.534 89.4079 180.196 89.4079 179.772 89.4079C179.434 89.3233 179.264 89.1963 179.264 89.0269C179.264 88.8576 179.645 88.5613 180.407 88.1379C182.609 87.1219 184.048 85.6403 184.725 83.6929C185.403 81.7456 185.784 79.0786 185.868 75.6919ZM172.406 90.6779C173.592 92.5406 175.454 93.9376 177.994 94.8689C180.619 95.7156 183.709 95.6309 187.265 94.6149C189.043 94.1069 190.61 93.2179 191.964 91.9479C193.319 90.6779 194.42 89.2809 195.266 87.7569C196.198 86.1483 196.875 84.4973 197.298 82.8039C197.806 81.1106 198.103 79.5443 198.187 78.1049C198.272 75.7343 198.187 73.4059 197.933 71.1199C197.764 68.8339 197.51 66.6326 197.171 64.5159C196.917 62.3146 196.663 60.1979 196.409 58.1659C196.24 56.1339 196.24 54.1443 196.409 52.1969C196.579 50.0803 197.171 48.4716 198.187 47.3709C199.203 46.2703 200.431 45.5929 201.87 45.3389C203.394 45.0003 204.961 45.0849 206.569 45.5929C208.178 46.1009 209.66 46.9053 211.014 48.0059C211.353 48.1753 211.48 48.3869 211.395 48.6409C211.395 48.8103 211.311 48.8526 211.141 48.7679C210.972 48.6833 210.803 48.5986 210.633 48.5139C207.501 47.4979 205.045 47.2016 203.267 47.6249C201.574 48.0483 200.643 49.5723 200.473 52.1969C200.304 55.2449 200.516 58.8433 201.108 62.9919C201.786 67.0559 202.04 71.5856 201.87 76.5809C201.955 78.2743 201.743 80.2216 201.235 82.4229C200.812 84.6243 200.05 86.7833 198.949 88.8999C197.933 90.9319 196.536 92.7523 194.758 94.3609C193.065 95.9696 191.033 96.9856 188.662 97.4089C184.175 98.0863 180.577 97.8323 177.867 96.6469C175.243 95.4616 173.338 93.6413 172.152 91.1859C171.983 90.6779 171.898 90.3816 171.898 90.2969H172.025C172.025 90.2969 172.152 90.4239 172.406 90.6779ZM177.994 90.6779C179.603 91.1013 181.55 91.2706 183.836 91.1859C184.598 91.1013 185.53 90.8896 186.63 90.5509C187.731 90.2123 188.324 90.1276 188.408 90.2969C188.662 90.6356 188.408 91.0589 187.646 91.5669C186.884 92.0749 185.911 92.5406 184.725 92.9639C183.54 93.3026 182.312 93.5566 181.042 93.7259C179.772 93.8106 178.714 93.6836 177.867 93.3449C176.259 92.6676 175.116 91.9479 174.438 91.1859C173.676 90.3393 172.999 89.3233 172.406 88.1379L172.152 87.6299C171.983 87.2913 171.941 87.0796 172.025 86.9949C172.11 86.9103 172.237 86.9103 172.406 86.9949C172.491 87.0796 172.533 87.1643 172.533 87.2489C173.549 88.1803 174.396 88.8999 175.073 89.4079C175.835 89.8313 176.809 90.2546 177.994 90.6779Z" fill="#397481"/>
<path d="M244.858 92.0749C247.906 91.5669 250.827 90.6356 253.621 89.2809C256.5 87.9263 259.082 86.1906 261.368 84.0739C261.537 83.9893 261.876 83.6929 262.384 83.1849C262.892 82.6769 263.231 82.5076 263.4 82.6769C263.569 82.8463 263.527 83.1003 263.273 83.4389C263.019 83.7776 262.807 84.0739 262.638 84.3279C260.945 86.7833 258.701 88.8153 255.907 90.4239C253.198 91.9479 250.361 93.1756 247.398 94.1069C244.943 94.7843 242.318 95.0383 239.524 94.8689C236.73 94.6149 234.105 93.8953 231.65 92.7099C230.888 92.3713 230.422 92.1173 230.253 91.9479C230.084 91.6939 230.084 91.5246 230.253 91.4399C230.422 91.3553 230.676 91.3129 231.015 91.3129C231.438 91.3129 231.819 91.3553 232.158 91.4399C233.089 91.6093 234.148 91.7786 235.333 91.9479C236.603 92.0326 237.831 92.1173 239.016 92.2019C240.286 92.2019 241.429 92.2019 242.445 92.2019C243.461 92.2019 244.265 92.1596 244.858 92.0749ZM227.84 54.7369C227.417 57.7003 227.205 60.6213 227.205 63.4999C227.205 66.2939 227.374 68.9609 227.713 71.5009C228.136 73.9563 228.729 76.1576 229.491 78.1049C230.338 80.0523 231.354 81.6609 232.539 82.9309C233.894 84.2856 235.545 85.3439 237.492 86.1059C239.524 86.7833 241.683 87.1219 243.969 87.1219C246.34 87.1219 248.795 86.7833 251.335 86.1059C253.96 85.4286 256.542 84.3703 259.082 82.9309C259.59 82.5923 259.929 82.5076 260.098 82.6769C260.267 82.8463 260.183 83.0579 259.844 83.3119C259.59 83.4813 259.336 83.6506 259.082 83.8199C256.881 85.5133 254.552 86.8679 252.097 87.8839C249.642 88.8999 247.144 89.5349 244.604 89.7889C242.149 90.0429 239.736 89.9159 237.365 89.4079C235.079 88.8153 233.005 87.7569 231.142 86.2329C229.364 84.7089 227.925 82.8886 226.824 80.7719C225.723 78.5706 224.877 76.1999 224.284 73.6599C223.776 71.0353 223.48 68.3259 223.395 65.5319C223.31 62.7379 223.395 59.9863 223.649 57.2769C223.988 52.9589 224.834 48.5986 226.189 44.1959C227.544 39.7933 229.322 35.7293 231.523 32.0039C233.809 28.2786 236.518 25.0189 239.651 22.2249C242.784 19.4309 246.297 17.4836 250.192 16.3829C252.139 15.8749 254.129 15.6633 256.161 15.7479C258.193 15.8326 260.056 16.2136 261.749 16.8909C263.527 17.5683 265.051 18.5843 266.321 19.9389C267.591 21.2089 268.438 22.7753 268.861 24.6379C269.284 26.6699 269.115 28.6596 268.353 30.6069C267.591 32.4696 266.533 34.1206 265.178 35.5599C263.823 36.9146 262.299 37.8883 260.606 38.4809C258.913 39.0736 257.304 39.0736 255.78 38.4809C255.695 38.4809 255.611 38.3539 255.526 38.0999C255.526 37.8459 255.695 37.7613 256.034 37.8459C257.05 38.0153 258.193 37.8036 259.463 37.2109C260.818 36.5336 262.003 35.6446 263.019 34.5439C264.12 33.4433 264.966 32.1309 265.559 30.6069C266.236 29.0829 266.448 27.5166 266.194 25.9079C265.94 24.7226 265.39 23.7066 264.543 22.8599C263.781 21.9286 262.765 21.2089 261.495 20.7009C260.225 20.1083 258.786 19.7273 257.177 19.5579C255.653 19.3886 254.044 19.4733 252.351 19.8119C249.134 20.4046 246.128 21.8439 243.334 24.1299C240.625 26.3313 238.212 29.0406 236.095 32.2579C233.978 35.4753 232.2 39.0736 230.761 43.0529C229.322 46.9476 228.348 50.8423 227.84 54.7369ZM237.873 96.7739C238.804 96.8586 239.736 96.9009 240.667 96.9009C241.683 96.9009 242.191 97.0279 242.191 97.2819C242.191 97.3666 242.022 97.4089 241.683 97.4089C241.344 97.4936 240.963 97.5359 240.54 97.5359C240.201 97.5359 239.82 97.5359 239.397 97.5359C238.974 97.5359 238.72 97.5359 238.635 97.5359C236.01 97.5359 233.428 97.1549 230.888 96.3929C228.348 95.6309 225.977 94.5726 223.776 93.2179C221.659 91.7786 219.754 90.0429 218.061 88.0109C216.368 85.9789 215.098 83.6506 214.251 81.0259C212.558 75.8613 211.584 70.8236 211.33 65.9129C211.076 61.0023 211.288 56.1763 211.965 51.4349C212.304 48.7256 212.939 45.6776 213.87 42.2909C214.886 38.8196 216.198 35.3059 217.807 31.7499C219.5 28.1939 221.575 24.6803 224.03 21.2089C226.57 17.7376 229.576 14.5626 233.047 11.6839C236.688 8.63593 240.709 6.60393 245.112 5.58793C249.599 4.57193 253.875 4.4026 257.939 5.07993C262.003 5.75726 265.601 7.1966 268.734 9.39793C271.867 11.5146 273.941 14.2239 274.957 17.5259C275.042 17.6953 275.126 18.0763 275.211 18.6689C275.296 19.1769 275.253 19.5156 275.084 19.6849C274.999 19.7696 274.872 19.5579 274.703 19.0499C274.534 18.5419 274.364 18.2033 274.195 18.0339C270.639 13.2079 266.617 10.1599 262.13 8.88993C257.643 7.53526 253.198 7.40826 248.795 8.50893C244.392 9.52493 240.244 11.4723 236.349 14.3509C232.454 17.1449 229.364 20.2776 227.078 23.7489C223.099 29.7603 220.051 36.1526 217.934 42.9259C215.902 49.6993 214.971 56.6843 215.14 63.8809C215.225 67.1829 215.563 70.6543 216.156 74.2949C216.833 77.9356 218.103 81.4069 219.966 84.7089C221.829 88.0956 224.369 90.9319 227.586 93.2179C230.888 95.4193 234.317 96.6046 237.873 96.7739ZM219.585 49.0219C220.262 44.5346 221.321 40.1743 222.76 35.9409C224.284 31.7076 226.231 27.8553 228.602 24.3839C231.057 20.8279 234.063 17.7799 237.619 15.2399C241.175 12.6999 245.366 10.9219 250.192 9.90593C251.885 9.56727 253.79 9.44027 255.907 9.52493C258.024 9.52493 260.14 9.90593 262.257 10.6679C264.374 11.3453 266.321 12.4036 268.099 13.8429C269.962 15.2823 271.486 17.2719 272.671 19.8119C273.772 22.2673 274.153 24.6803 273.814 27.0509C273.475 29.4216 272.756 31.5806 271.655 33.5279C270.554 35.3906 269.2 36.9569 267.591 38.2269C265.982 39.4969 264.416 40.2166 262.892 40.3859C261.961 40.5553 261.453 40.5553 261.368 40.3859C261.283 40.1319 261.749 39.8356 262.765 39.4969C264.374 38.9889 265.982 37.7189 267.591 35.6869C269.284 33.5703 270.3 30.9033 270.639 27.6859C270.808 26.0773 270.597 24.5109 270.004 22.9869C269.411 21.3783 268.565 19.9813 267.464 18.7959C266.363 17.6106 265.051 16.5946 263.527 15.7479C262.003 14.9013 260.394 14.3509 258.701 14.0969C255.06 13.5889 251.716 13.8429 248.668 14.8589C245.62 15.8749 242.953 17.1873 240.667 18.7959C238.466 20.3199 236.645 21.8439 235.206 23.3679C233.851 24.8919 233.005 25.9079 232.666 26.4159C230.041 29.7179 227.755 33.3163 225.808 37.2109C223.861 41.0209 222.252 45.0426 220.982 49.2759C220.982 49.3606 220.897 49.6569 220.728 50.1649C220.643 50.6729 220.516 51.2233 220.347 51.8159C220.262 52.3239 220.135 52.8319 219.966 53.3399C219.797 53.7633 219.67 53.9749 219.585 53.9749C219.416 53.9749 219.331 53.7209 219.331 53.2129C219.331 52.7049 219.331 52.1969 219.331 51.6889C219.331 51.0963 219.373 50.5459 219.458 50.0379C219.543 49.5299 219.585 49.1913 219.585 49.0219ZM322.612 52.7049C321.934 56.0916 320.791 59.4783 319.183 62.8649C317.574 66.2516 316.05 69.4266 314.611 72.3899C314.526 72.5593 314.314 72.8556 313.976 73.2789C313.722 73.7023 313.51 73.9139 313.341 73.9139C313.087 73.8293 312.96 73.5753 312.96 73.1519C312.96 72.6439 312.96 72.3053 312.96 72.1359C313.044 71.3739 313.171 70.4849 313.341 69.4689C313.595 68.3683 313.806 67.2676 313.976 66.1669C314.145 64.9816 314.314 63.8809 314.484 62.8649C314.738 61.7643 314.992 60.7906 315.246 59.9439C316.008 57.0653 316.643 54.6099 317.151 52.5779C317.659 50.4613 318.04 48.5563 318.294 46.8629C318.548 45.1696 318.675 43.5609 318.675 42.0369C318.759 40.5129 318.675 38.8619 318.421 37.0839C318.336 36.4066 318.378 35.9833 318.548 35.8139C318.717 35.7293 318.929 35.8139 319.183 36.0679C319.437 36.3219 319.648 36.5759 319.818 36.8299C321.257 39.1159 322.231 41.6559 322.739 44.4499C323.247 47.1593 323.204 49.9109 322.612 52.7049ZM325.66 44.1959C326.76 45.8046 327.311 47.9213 327.311 50.5459C327.311 53.1706 327.057 55.8799 326.549 58.6739C326.041 61.3833 325.406 64.0079 324.644 66.5479C323.882 69.0879 323.331 71.1199 322.993 72.6439C322.315 75.6073 321.384 78.5706 320.199 81.5339C319.013 84.4973 317.997 87.1219 317.151 89.4079C317.066 89.6619 316.939 89.9583 316.77 90.2969C316.6 90.5509 316.431 90.6779 316.262 90.6779C316.092 90.6779 316.008 90.5086 316.008 90.1699C316.008 89.8313 316.008 89.5349 316.008 89.2809C315.754 84.6243 316.262 80.0946 317.532 75.6919C318.802 71.2046 320.156 66.6749 321.596 62.1029C322.442 59.3089 323.247 56.4726 324.009 53.5939C324.771 50.6306 325.109 47.4133 325.025 43.9419C325.025 43.6033 325.067 43.4339 325.152 43.4339L325.66 44.1959ZM313.722 42.0369C308.557 44.1536 304.154 47.2016 300.514 51.1809C296.958 55.0756 294.206 59.4783 292.259 64.3889C291.412 66.5903 290.777 68.5799 290.354 70.3579C289.93 72.0513 289.592 73.9139 289.338 75.9459C289.253 76.3693 289.38 76.7926 289.719 77.2159C290.057 77.6393 290.396 77.6393 290.735 77.2159C292.259 75.3533 294.206 72.9826 296.577 70.1039C298.947 67.2253 301.318 64.1773 303.689 60.9599C306.059 57.7426 308.176 54.4829 310.039 51.1809C311.986 47.8789 313.214 44.8309 313.722 42.0369ZM305.213 85.0899C303.943 86.8679 302.715 88.5189 301.53 90.0429C300.344 91.5669 299.032 92.9216 297.593 94.1069C296.153 95.2076 294.545 96.0966 292.767 96.7739C290.989 97.4513 288.957 97.8323 286.671 97.9169C282.861 98.0863 279.94 97.1126 277.908 94.9959C275.96 92.8793 274.606 90.2969 273.844 87.2489C273.082 84.2009 272.785 81.0683 272.955 77.8509C273.209 74.5489 273.674 71.8396 274.352 69.7229C275.283 66.7596 276.384 63.9656 277.654 61.3409C279.008 58.6316 280.405 56.2186 281.845 54.1019C283.369 51.9006 284.893 50.0379 286.417 48.5139C288.025 46.9053 289.592 45.6776 291.116 44.8309C291.2 44.8309 291.37 44.7463 291.624 44.5769C291.962 44.4076 292.132 44.4499 292.132 44.7039C292.216 44.7039 292.174 44.8309 292.005 45.0849C291.835 45.3389 291.666 45.5506 291.497 45.7199C287.094 50.2919 283.58 55.4566 280.956 61.2139C278.416 66.9713 276.976 72.8979 276.638 78.9939C276.553 80.5179 276.595 82.1689 276.765 83.9469C277.019 85.7249 277.442 87.4183 278.035 89.0269C278.712 90.5509 279.643 91.8633 280.829 92.9639C282.014 93.9799 283.623 94.4879 285.655 94.4879C287.263 94.4879 288.745 94.2339 290.1 93.7259C291.454 93.1333 292.724 92.4136 293.91 91.5669C295.095 90.6356 296.153 89.6619 297.085 88.6459C298.101 87.5453 298.99 86.5293 299.752 85.5979C301.445 83.4813 303.011 81.2799 304.451 78.9939C304.451 77.3006 304.535 75.6496 304.705 74.0409C304.959 72.4323 305.297 70.8236 305.721 69.2149C305.975 68.0296 306.186 67.0983 306.356 66.4209C306.61 65.6589 306.821 64.9816 306.991 64.3889C307.245 63.7116 307.456 63.0343 307.626 62.3569C307.88 61.5949 308.218 60.6213 308.642 59.4359C307.287 61.8066 305.932 64.0503 304.578 66.1669C303.308 68.1989 301.911 70.1886 300.387 72.1359C298.947 73.9986 297.423 75.8613 295.815 77.7239C294.291 79.5019 292.597 81.3223 290.735 83.1849C289.295 84.6243 288.11 85.0899 287.179 84.5819C286.247 84.0739 285.697 82.8886 285.528 81.0259C285.358 78.1473 285.485 75.3533 285.909 72.6439C286.417 69.9346 287.263 67.0983 288.449 64.1349C289.549 61.4256 290.904 58.8009 292.513 56.2609C294.206 53.7209 296.111 51.4349 298.228 49.4029C300.429 47.2863 302.842 45.5083 305.467 44.0689C308.091 42.5449 310.885 41.5289 313.849 41.0209C314.018 40.0896 314.145 39.2853 314.23 38.6079C314.399 37.9306 314.526 37.2533 314.611 36.5759C314.78 35.6446 314.865 35.1789 314.865 35.1789C315.034 35.0943 315.203 35.1789 315.373 35.4329C315.627 35.6869 315.838 36.0256 316.008 36.4489C317.024 39.2429 317.362 42.0369 317.024 44.8309C316.685 47.6249 316.05 50.4613 315.119 53.3399C314.272 56.2186 313.256 59.1819 312.071 62.2299C310.885 65.1933 309.912 68.1989 309.15 71.2469C308.134 75.5649 307.837 80.0523 308.261 84.7089C308.769 89.2809 310.589 93.4296 313.722 97.1549C313.976 97.4936 314.103 97.6629 314.103 97.6629C314.018 97.7476 313.764 97.6629 313.341 97.4089C310.885 95.8849 309.023 94.0646 307.753 91.9479C306.567 89.7466 305.721 87.4606 305.213 85.0899ZM309.658 40.1319C309.827 40.3013 309.785 40.4283 309.531 40.5129C309.361 40.5976 308.938 40.7246 308.261 40.8939C307.16 41.2326 305.805 41.8676 304.197 42.7989C302.673 43.7303 301.022 44.9156 299.244 46.3549C297.55 47.7943 295.857 49.4876 294.164 51.4349C292.47 53.2976 290.989 55.3296 289.719 57.5309C288.449 59.8169 287.348 62.0606 286.417 64.2619C285.57 66.4633 284.85 68.4953 284.258 70.3579C283.75 72.1359 283.369 73.7023 283.115 75.0569C282.861 76.3269 282.734 77.2159 282.734 77.7239C282.734 78.9939 282.734 80.3486 282.734 81.7879C282.734 83.1426 282.903 84.3703 283.242 85.4709C283.58 86.5716 284.173 87.4183 285.02 88.0109C285.866 88.6036 287.136 88.7729 288.83 88.5189C288.914 88.5189 289.126 88.4766 289.465 88.3919C289.803 88.2226 290.142 88.0956 290.481 88.0109C290.819 87.8416 291.116 87.7146 291.37 87.6299C291.708 87.5453 291.92 87.5029 292.005 87.5029C292.089 87.6723 292.005 87.8839 291.751 88.1379C291.581 88.3919 291.327 88.6883 290.989 89.0269C290.65 89.2809 290.311 89.5349 289.973 89.7889C289.719 90.0429 289.549 90.2123 289.465 90.2969C287.348 91.5669 285.57 91.9479 284.131 91.4399C282.691 90.9319 281.548 90.0006 280.702 88.6459C279.94 87.2066 279.389 85.5556 279.051 83.6929C278.797 81.7456 278.712 80.0099 278.797 78.4859C278.966 75.5226 279.432 72.6016 280.194 69.7229C280.956 66.7596 281.929 63.7963 283.115 60.8329C284.046 58.5469 285.443 56.2186 287.306 53.8479C289.168 51.3926 291.243 49.1489 293.529 47.1169C295.899 45.0849 298.355 43.4339 300.895 42.1639C303.435 40.8093 305.89 40.0896 308.261 40.0049C309.107 40.0049 309.573 40.0473 309.658 40.1319ZM317.151 97.1549C317.32 97.4089 317.362 97.5783 317.278 97.6629C317.024 97.6629 316.685 97.5783 316.262 97.4089C316.008 97.2396 315.33 96.7316 314.23 95.8849C313.129 95.0383 312.325 93.6836 311.817 91.8209C311.647 91.1436 311.478 90.2969 311.309 89.2809C311.224 88.1803 311.182 87.1643 311.182 86.2329C311.182 85.3016 311.224 84.4973 311.309 83.8199C311.478 83.1426 311.69 82.8039 311.944 82.8039C312.198 82.8039 312.452 83.3119 312.706 84.3279C313.044 85.3439 313.256 85.9789 313.341 86.2329C313.595 87.4183 313.806 88.4766 313.976 89.4079C314.23 90.2546 314.484 91.0589 314.738 91.8209C315.076 92.7523 315.5 93.8106 316.008 94.9959C316.6 96.1813 316.981 96.9009 317.151 97.1549ZM352.644 31.2419C351.374 36.5759 349.681 41.9523 347.564 47.3709C345.448 52.7049 343.373 57.7426 341.341 62.4839C341.257 62.6533 341.045 63.1189 340.706 63.8809C340.368 64.5583 340.114 64.8969 339.944 64.8969C339.69 64.7276 339.606 64.3043 339.69 63.6269C339.775 62.8649 339.817 62.3569 339.817 62.1029C339.987 60.9176 340.241 59.4783 340.579 57.7849C340.918 56.0069 341.299 54.2289 341.722 52.4509C342.23 50.5883 342.696 48.7679 343.119 46.9899C343.543 45.2119 343.966 43.7303 344.389 42.5449C345.236 39.7509 346.083 36.4913 346.929 32.7659C347.776 29.0406 348.453 25.3153 348.961 21.5899C349.469 17.8646 349.723 14.4356 349.723 11.3029C349.808 8.0856 349.427 5.71493 348.58 4.19093C348.157 3.5136 348.072 3.09026 348.326 2.92093C348.665 2.7516 349.088 2.92093 349.596 3.42893C350.866 4.69893 351.798 6.51927 352.39 8.88993C353.068 11.2606 353.491 13.8006 353.66 16.5099C353.83 19.1346 353.83 21.8016 353.66 24.5109C353.491 27.1356 353.152 29.3793 352.644 31.2419ZM349.723 62.2299C349.046 64.3466 348.411 66.5479 347.818 68.8339C347.226 71.0353 346.675 73.1943 346.167 75.3109C345.659 77.4276 345.236 79.4596 344.897 81.4069C344.643 83.2696 344.516 84.9629 344.516 86.4869C344.516 87.5029 344.389 88.0533 344.135 88.1379C343.881 88.1379 343.585 87.5876 343.246 86.4869C342.4 83.4389 342.061 80.2639 342.23 76.9619C342.484 73.6599 342.992 70.3156 343.754 66.9289C344.601 63.4576 345.575 59.9863 346.675 56.5149C347.861 53.0436 349.004 49.5723 350.104 46.1009C351.544 41.6983 352.898 36.7876 354.168 31.3689C355.438 25.9503 355.989 20.5316 355.819 15.1129C355.819 14.4356 355.946 14.2239 356.2 14.4779C356.454 14.7319 356.624 14.9859 356.708 15.2399C357.47 16.8486 357.894 18.9229 357.978 21.4629C358.148 24.0029 358.021 26.7969 357.597 29.8449C357.259 32.8083 356.708 35.8986 355.946 39.1159C355.269 42.2486 354.549 45.2966 353.787 48.2599C353.025 51.1386 352.263 53.8056 351.501 56.2609C350.739 58.7163 350.147 60.7059 349.723 62.2299ZM347.31 97.0279C347.818 97.0279 348.072 97.1549 348.072 97.4089C347.903 97.4936 347.776 97.5359 347.691 97.5359H347.31C345.532 97.6206 343.797 97.3243 342.103 96.6469C340.41 95.9696 338.844 95.0383 337.404 93.8529C335.965 92.5829 334.695 91.0589 333.594 89.2809C332.578 87.5029 331.816 85.5133 331.308 83.3119C330.377 78.9939 330.081 74.7183 330.419 70.4849C330.843 66.1669 331.605 62.1029 332.705 58.2929C334.145 53.1283 335.669 47.9636 337.277 42.7989C338.971 37.6343 340.452 32.6389 341.722 27.8129C343.077 22.9023 344.051 18.2033 344.643 13.7159C345.236 9.14393 345.194 4.91059 344.516 1.01593C344.347 0.423263 344.389 0.126931 344.643 0.126931C344.813 0.0422659 344.94 0.169267 345.024 0.507934C345.109 0.761931 345.236 0.931262 345.405 1.01593C347.268 5.07993 348.115 9.56726 347.945 14.4779C347.776 19.3039 347.014 24.3416 345.659 29.5909C344.389 34.8403 342.823 40.1743 340.96 45.5929C339.098 50.9269 337.489 56.1339 336.134 61.2139C335.203 64.5159 334.526 68.0719 334.102 71.8819C333.764 75.6073 333.975 79.2903 334.737 82.9309C335.499 86.7409 337.023 89.9583 339.309 92.5829C341.68 95.2076 344.347 96.6893 347.31 97.0279ZM343.5 90.6779C345.194 92.7946 347.268 93.9799 349.723 94.2339C350.485 94.4033 350.697 94.6573 350.358 94.9959C350.104 95.2499 349.723 95.3769 349.215 95.3769C347.776 95.3769 346.337 95.2076 344.897 94.8689C343.543 94.5303 342.188 93.5989 340.833 92.0749C340.156 91.2283 339.563 90.0853 339.055 88.6459C338.547 87.1219 338.166 85.6403 337.912 84.2009C337.658 82.7616 337.531 81.4916 337.531 80.3909C337.531 79.2903 337.701 78.7399 338.039 78.7399C338.124 78.7399 338.251 78.9939 338.42 79.5019C338.59 79.9253 338.759 80.4333 338.928 81.0259C339.098 81.5339 339.267 82.0843 339.436 82.6769C339.606 83.1849 339.733 83.5659 339.817 83.8199C340.749 86.6139 341.976 88.8999 343.5 90.6779ZM372.33 70.7389C371.653 74.3796 371.23 77.4699 371.06 80.0099C370.976 82.4653 371.399 84.3703 372.33 85.7249C373.346 87.0796 374.997 87.8416 377.283 88.0109C379.569 88.1803 382.787 87.7569 386.935 86.7409C387.528 86.5716 387.867 86.5293 387.951 86.6139C388.121 86.6986 388.078 86.8256 387.824 86.9949C387.655 87.1643 387.401 87.3336 387.062 87.5029C385.708 88.3496 384.226 89.0269 382.617 89.5349C381.093 90.0429 379.569 90.3393 378.045 90.4239C376.521 90.4239 375.082 90.2546 373.727 89.9159C372.373 89.5773 371.272 88.9846 370.425 88.1379C368.732 86.4446 367.758 84.1163 367.504 81.1529C367.25 78.1049 367.462 75.0146 368.139 71.8819C368.647 69.3419 369.282 66.8443 370.044 64.3889C370.806 61.8489 371.78 59.5206 372.965 57.4039C374.235 55.2026 375.675 53.2976 377.283 51.6889C378.977 49.9956 380.924 48.7256 383.125 47.8789C384.226 47.4556 385.411 47.2439 386.681 47.2439C387.951 47.2439 389.094 47.4133 390.11 47.7519C391.126 48.0906 391.973 48.5986 392.65 49.2759C393.412 49.9533 393.878 50.7576 394.047 51.6889C394.132 52.6203 394.005 53.5516 393.666 54.4829C393.328 55.3296 392.82 56.1339 392.142 56.8959C391.55 57.6579 390.872 58.2929 390.11 58.8009C389.348 59.3089 388.586 59.6053 387.824 59.6899C387.147 59.8593 386.724 59.8169 386.554 59.5629C386.47 59.3089 386.639 59.0973 387.062 58.9279C387.401 58.8433 387.824 58.5893 388.332 58.1659C388.925 57.6579 389.433 57.1076 389.856 56.5149C390.364 55.9223 390.745 55.2449 390.999 54.4829C391.253 53.7209 391.253 52.9589 390.999 52.1969C390.83 51.6889 390.237 51.3079 389.221 51.0539C388.29 50.7999 386.851 50.8846 384.903 51.3079C383.379 51.7313 381.94 52.5779 380.585 53.8479C379.231 55.0333 378.003 56.5573 376.902 58.4199C375.802 60.1979 374.828 62.1876 373.981 64.3889C373.219 66.5056 372.669 68.6223 372.33 70.7389ZM373.854 96.9009C374.701 96.9009 375.124 96.9856 375.124 97.1549C375.124 97.2396 375.04 97.3243 374.87 97.4089C374.786 97.4936 374.489 97.5359 373.981 97.5359C372.119 97.6206 370.256 97.5359 368.393 97.2819C366.531 97.0279 364.795 96.4776 363.186 95.6309C361.578 94.6996 360.138 93.4719 358.868 91.9479C357.683 90.3393 356.836 88.2649 356.328 85.7249C355.482 81.8303 355.185 77.8509 355.439 73.7869C355.693 69.7229 356.455 65.7859 357.725 61.9759C358.995 58.1659 360.731 54.5676 362.932 51.1809C365.218 47.7096 368.012 44.6616 371.314 42.0369C373.77 40.0049 376.606 38.6503 379.823 37.9729C383.041 37.2109 386.131 37.0416 389.094 37.4649C392.142 37.8883 394.767 38.9043 396.968 40.5129C399.254 42.1216 400.651 44.2806 401.159 46.9899C401.413 47.6673 401.413 48.1329 401.159 48.3869C400.905 48.3869 400.651 47.9636 400.397 47.1169C399.212 45.2543 397.857 43.7726 396.333 42.6719C394.809 41.5713 393.158 40.8093 391.38 40.3859C389.687 39.8779 387.951 39.6663 386.173 39.7509C384.395 39.8356 382.744 40.0896 381.22 40.5129C378.172 41.3596 375.717 42.5449 373.854 44.0689C371.992 45.5083 370.129 47.3286 368.266 49.5299C365.303 53.0859 363.102 57.1076 361.662 61.5949C360.308 65.9976 359.461 70.4003 359.122 74.8029C358.953 76.9196 358.995 79.1209 359.249 81.4069C359.503 83.6083 360.096 85.9366 361.027 88.3919C361.959 90.7626 363.652 92.7523 366.107 94.3609C368.563 95.8849 371.145 96.7316 373.854 96.9009ZM363.948 66.2939C364.456 63.4999 365.091 60.8329 365.853 58.2929C366.615 55.6683 367.674 53.2976 369.028 51.1809C370.468 48.9796 372.288 47.0746 374.489 45.4659C376.691 43.8573 379.4 42.6296 382.617 41.7829C383.718 41.5289 385.03 41.4019 386.554 41.4019C388.163 41.4019 389.729 41.6559 391.253 42.1639C392.777 42.5873 394.174 43.3493 395.444 44.4499C396.714 45.4659 397.688 46.8629 398.365 48.6409C398.958 50.3343 399.085 51.9006 398.746 53.3399C398.408 54.7793 397.815 56.0916 396.968 57.2769C396.122 58.3776 395.106 59.3089 393.92 60.0709C392.82 60.7483 391.761 61.1293 390.745 61.2139C390.576 61.2139 390.322 61.1716 389.983 61.0869C389.729 61.0023 389.941 60.8329 390.618 60.5789C391.55 60.1556 392.481 59.3089 393.412 58.0389C394.428 56.7689 395.106 55.2026 395.444 53.3399C395.868 51.3926 395.36 49.6993 393.92 48.2599C392.481 46.8206 390.618 45.9739 388.332 45.7199C386.131 45.4659 384.141 45.6776 382.363 46.3549C380.585 47.0323 379.061 47.8366 377.791 48.7679C376.521 49.6993 375.505 50.6306 374.743 51.5619C373.981 52.4086 373.473 52.9589 373.219 53.2129C370.171 57.1076 367.547 61.5949 365.345 66.6749C365.345 66.7596 365.134 67.2253 364.71 68.0719C364.372 68.9186 364.118 69.3419 363.948 69.3419C363.779 69.3419 363.694 69.2149 363.694 68.9609C363.694 68.6223 363.694 68.2836 363.694 67.9449C363.779 67.6063 363.821 67.2676 363.821 66.9289C363.906 66.5903 363.948 66.3786 363.948 66.2939ZM389.602 89.2809C389.01 90.1276 388.205 90.9319 387.189 91.6939C386.258 92.4559 385.157 93.1333 383.887 93.7259C382.702 94.2339 381.432 94.6573 380.077 94.9959C378.807 95.3346 377.537 95.5039 376.267 95.5039C374.066 95.5039 371.992 95.0806 370.044 94.2339C368.097 93.3873 366.488 91.4823 365.218 88.5189C364.88 87.9263 364.88 87.4606 365.218 87.1219C365.472 87.0373 365.769 87.2066 366.107 87.6299C366.531 87.9686 366.912 88.3496 367.25 88.7729C368.182 89.7043 369.494 90.6356 371.187 91.5669C372.965 92.4136 374.489 92.8369 375.759 92.8369C378.299 92.8369 380.585 92.4983 382.617 91.8209C384.734 91.0589 386.639 90.0853 388.332 88.8999C388.502 88.8153 388.713 88.6883 388.967 88.5189C389.306 88.2649 389.56 88.1379 389.729 88.1379C389.899 88.0533 389.983 88.0956 389.983 88.2649C390.068 88.4343 389.941 88.7729 389.602 89.2809ZM440.899 57.2769C439.883 60.4096 438.656 63.4153 437.216 66.2939C435.862 69.1726 434.422 72.0513 432.898 74.9299C432.729 75.0993 432.475 75.5226 432.136 76.1999C431.798 76.7926 431.501 77.0043 431.247 76.8349C431.078 76.8349 430.993 76.5809 430.993 76.0729C431.078 75.5649 431.12 75.1839 431.12 74.9299C431.205 74.2526 431.374 73.2789 431.628 72.0089C431.967 70.7389 432.306 69.4266 432.644 68.0719C433.068 66.6326 433.449 65.2779 433.787 64.0079C434.211 62.6533 434.549 61.5949 434.803 60.8329C436.243 56.2609 437.174 52.1969 437.597 48.6409C438.021 45.0849 437.767 42.0793 436.835 39.6239C436.666 39.2006 436.666 38.9889 436.835 38.9889C437.005 38.9889 437.174 39.0736 437.343 39.2429C437.513 39.4123 437.64 39.5393 437.724 39.6239C438.656 40.6399 439.418 41.9523 440.01 43.5609C440.603 45.0849 441.026 46.6936 441.28 48.3869C441.534 49.9956 441.619 51.6043 441.534 53.2129C441.45 54.8216 441.238 56.1763 440.899 57.2769ZM444.328 48.1329C445.429 49.8263 445.937 51.9429 445.852 54.4829C445.768 57.0229 445.429 59.6476 444.836 62.3569C444.328 65.0663 443.651 67.6486 442.804 70.1039C442.042 72.5593 441.45 74.5066 441.026 75.9459C440.18 78.7399 439.164 81.6186 437.978 84.5819C436.793 87.4606 435.735 89.9583 434.803 92.0749C434.465 92.8369 434.211 93.1756 434.041 93.0909C433.787 93.0063 433.618 92.8369 433.533 92.5829C433.533 92.2443 433.533 91.9903 433.533 91.8209C433.533 87.2489 434.168 82.8463 435.438 78.6129C436.793 74.3796 438.232 70.1039 439.756 65.7859C440.688 62.9919 441.534 60.2403 442.296 57.5309C443.058 54.7369 443.439 51.6889 443.439 48.3869C443.439 47.7943 443.524 47.4979 443.693 47.4979C443.778 47.4979 443.863 47.5826 443.947 47.7519C444.032 47.8366 444.159 47.9636 444.328 48.1329ZM418.928 88.0109C419.098 88.2649 418.801 88.6459 418.039 89.1539C417.277 89.6619 416.769 89.9583 416.515 90.0429C412.79 91.3976 409.869 91.4399 407.752 90.1699C405.72 88.8999 404.239 86.9949 403.307 84.4549C402.461 81.9149 402.037 79.1209 402.037 76.0729C402.037 72.9403 402.207 70.1463 402.545 67.6909C402.799 65.5743 403.265 63.2459 403.942 60.7059C404.704 58.0813 405.593 55.5413 406.609 53.0859C407.625 50.5459 408.768 48.2176 410.038 46.1009C411.393 43.8996 412.832 42.2063 414.356 41.0209C414.526 40.9363 414.695 40.8093 414.864 40.6399C415.118 40.4706 415.33 40.3859 415.499 40.3859C415.753 40.4706 415.626 40.9363 415.118 41.7829C414.61 42.6296 413.975 43.8149 413.213 45.3389C412.536 46.8629 411.816 48.6409 411.054 50.6729C410.292 52.6203 409.53 54.6946 408.768 56.8959C408.091 59.0973 407.541 61.2986 407.117 63.4999C406.694 65.7013 406.398 67.8179 406.228 69.8499C406.059 71.8819 405.974 73.7023 405.974 75.3109C405.974 76.9196 406.017 78.2743 406.101 79.3749C406.186 80.4756 406.271 81.1953 406.355 81.5339C406.948 84.1586 408.049 86.1059 409.657 87.3759C411.351 88.5613 413.594 88.8999 416.388 88.3919C416.473 88.3919 416.896 88.3073 417.658 88.1379C418.42 87.9686 418.844 87.9263 418.928 88.0109ZM435.311 97.7899C435.65 98.1286 435.819 98.3826 435.819 98.5519C435.819 98.7213 435.608 98.7636 435.184 98.6789C434.846 98.5943 434.592 98.5096 434.422 98.4249C433.745 98.0863 432.898 97.6206 431.882 97.0279C430.866 96.3506 430.104 95.2076 429.596 93.5989C429.342 92.9216 429.173 92.1173 429.088 91.1859C429.004 90.1699 428.961 89.2386 428.961 88.3919C428.961 87.5453 429.046 86.8679 429.215 86.3599C429.385 85.7673 429.596 85.5133 429.85 85.5979C430.02 85.6826 430.189 86.0636 430.358 86.7409C430.612 87.4183 430.824 88.1379 430.993 88.8999C431.163 89.8313 431.374 90.7203 431.628 91.5669C431.882 92.3289 432.179 93.1333 432.517 93.9799C432.941 94.9113 433.364 95.6733 433.787 96.2659C434.211 96.7739 434.719 97.2819 435.311 97.7899ZM423.627 90.8049C422.696 92.2443 421.257 93.7259 419.309 95.2499C417.447 96.6893 414.907 97.4089 411.689 97.4089C409.149 97.4089 406.948 96.7316 405.085 95.3769C403.307 94.0223 401.826 92.3289 400.64 90.2969C399.54 88.2649 398.735 86.0636 398.227 83.6929C397.804 81.2376 397.592 78.9093 397.592 76.7079C397.677 73.9986 397.889 71.2893 398.227 68.5799C398.651 65.8706 399.159 63.3306 399.751 60.9599C400.429 58.5893 401.148 56.4726 401.91 54.6099C402.757 52.7473 403.604 51.2233 404.45 50.0379C404.62 49.9533 404.789 49.7839 404.958 49.5299C405.212 49.1913 405.424 49.1066 405.593 49.2759C405.678 49.3606 405.636 49.5723 405.466 49.9109C405.382 50.1649 405.297 50.3766 405.212 50.5459C404.45 53.0859 403.688 55.7953 402.926 58.6739C402.249 61.4679 401.699 64.3043 401.275 67.1829C400.852 70.0616 400.64 72.8979 400.64 75.6919C400.64 78.4859 400.894 81.0683 401.402 83.4389C401.741 85.0476 402.334 86.5293 403.18 87.8839C404.112 89.2386 405.085 90.3816 406.101 91.3129C407.202 92.2443 408.345 92.9216 409.53 93.3449C410.8 93.7683 412.028 93.8953 413.213 93.7259C415.669 93.3873 417.531 92.7099 418.801 91.6939C420.071 90.5933 420.96 89.3233 421.468 87.8839C422.061 86.3599 422.4 84.7513 422.484 83.0579C422.654 81.2799 422.865 79.5019 423.119 77.7239C422.696 78.9093 421.849 80.0946 420.579 81.2799C419.394 82.3806 418.082 83.2696 416.642 83.9469C415.288 84.5396 413.933 84.7936 412.578 84.7089C411.308 84.6243 410.335 83.8623 409.657 82.4229C408.811 80.5603 408.345 78.5283 408.26 76.3269C408.176 74.1256 408.218 71.7126 408.387 69.0879C408.557 66.4633 408.938 63.7539 409.53 60.9599C410.123 58.1659 410.927 55.4989 411.943 52.9589C412.959 50.3343 414.145 47.8789 415.499 45.5929C416.939 43.3069 418.547 41.2749 420.325 39.4969L420.833 38.9889C421.087 38.7349 421.341 38.6079 421.595 38.6079C421.595 38.6079 421.426 39.0313 421.087 39.8779C418.632 44.4499 416.558 49.1913 414.864 54.1019C413.171 58.9279 412.155 63.8386 411.816 68.8339C411.393 74.3373 411.647 77.9356 412.578 79.6289C413.594 81.3223 414.822 81.8303 416.261 81.1529C417.701 80.3909 419.225 78.8246 420.833 76.4539C422.527 73.9986 423.881 71.3739 424.897 68.5799C425.829 66.0399 426.802 63.4153 427.818 60.7059C428.919 57.9966 429.893 55.2873 430.739 52.5779C431.671 49.7839 432.348 47.0746 432.771 44.4499C433.279 41.8253 433.406 39.3699 433.152 37.0839C433.152 36.6606 433.237 36.4489 433.406 36.4489C433.491 36.4489 433.533 36.4913 433.533 36.5759C433.533 36.7453 433.576 36.8299 433.66 36.8299C433.745 36.9146 433.787 36.9993 433.787 37.0839C435.142 39.9626 435.735 42.8836 435.565 45.8469C435.481 48.8103 434.973 51.8159 434.041 54.8639C433.195 57.9119 432.136 61.0446 430.866 64.2619C429.681 67.3946 428.665 70.5696 427.818 73.7869C427.31 75.8189 426.929 77.9779 426.675 80.2639C426.421 82.4653 426.379 84.6666 426.548 86.8679C426.718 89.0693 427.183 91.1859 427.945 93.2179C428.707 95.1653 429.808 96.8163 431.247 98.1709C431.417 98.3403 431.501 98.4673 431.501 98.5519C431.501 98.7213 431.374 98.7636 431.12 98.6789C430.951 98.6789 430.782 98.6366 430.612 98.5519C429.004 97.9593 427.607 96.9856 426.421 95.6309C425.236 94.2763 424.305 92.6676 423.627 90.8049ZM472.823 31.2419C471.553 36.5759 469.86 41.9523 467.743 47.3709C465.626 52.7049 463.552 57.7426 461.52 62.4839C461.435 62.6533 461.224 63.1189 460.885 63.8809C460.546 64.5583 460.292 64.8969 460.123 64.8969C459.869 64.7276 459.784 64.3043 459.869 63.6269C459.954 62.8649 459.996 62.3569 459.996 62.1029C460.165 60.9176 460.419 59.4783 460.758 57.7849C461.097 56.0069 461.478 54.2289 461.901 52.4509C462.409 50.5883 462.875 48.7679 463.298 46.9899C463.721 45.2119 464.145 43.7303 464.568 42.5449C465.415 39.7509 466.261 36.4913 467.108 32.7659C467.955 29.0406 468.632 25.3153 469.14 21.5899C469.648 17.8646 469.902 14.4356 469.902 11.3029C469.987 8.0856 469.606 5.71493 468.759 4.19093C468.336 3.5136 468.251 3.09026 468.505 2.92093C468.844 2.7516 469.267 2.92093 469.775 3.42893C471.045 4.69893 471.976 6.51927 472.569 8.88993C473.246 11.2606 473.67 13.8006 473.839 16.5099C474.008 19.1346 474.008 21.8016 473.839 24.5109C473.67 27.1356 473.331 29.3793 472.823 31.2419ZM469.902 62.2299C469.225 64.3466 468.59 66.5479 467.997 68.8339C467.404 71.0353 466.854 73.1943 466.346 75.3109C465.838 77.4276 465.415 79.4596 465.076 81.4069C464.822 83.2696 464.695 84.9629 464.695 86.4869C464.695 87.5029 464.568 88.0533 464.314 88.1379C464.06 88.1379 463.764 87.5876 463.425 86.4869C462.578 83.4389 462.24 80.2639 462.409 76.9619C462.663 73.6599 463.171 70.3156 463.933 66.9289C464.78 63.4576 465.753 59.9863 466.854 56.5149C468.039 53.0436 469.182 49.5723 470.283 46.1009C471.722 41.6983 473.077 36.7876 474.347 31.3689C475.617 25.9503 476.167 20.5316 475.998 15.1129C475.998 14.4356 476.125 14.2239 476.379 14.4779C476.633 14.7319 476.802 14.9859 476.887 15.2399C477.649 16.8486 478.072 18.9229 478.157 21.4629C478.326 24.0029 478.199 26.7969 477.776 29.8449C477.437 32.8083 476.887 35.8986 476.125 39.1159C475.448 42.2486 474.728 45.2966 473.966 48.2599C473.204 51.1386 472.442 53.8056 471.68 56.2609C470.918 58.7163 470.325 60.7059 469.902 62.2299ZM467.489 97.0279C467.997 97.0279 468.251 97.1549 468.251 97.4089C468.082 97.4936 467.955 97.5359 467.87 97.5359H467.489C465.711 97.6206 463.975 97.3243 462.282 96.6469C460.589 95.9696 459.022 95.0383 457.583 93.8529C456.144 92.5829 454.874 91.0589 453.773 89.2809C452.757 87.5029 451.995 85.5133 451.487 83.3119C450.556 78.9939 450.259 74.7183 450.598 70.4849C451.021 66.1669 451.783 62.1029 452.884 58.2929C454.323 53.1283 455.847 47.9636 457.456 42.7989C459.149 37.6343 460.631 32.6389 461.901 27.8129C463.256 22.9023 464.229 18.2033 464.822 13.7159C465.415 9.14393 465.372 4.91059 464.695 1.01593C464.526 0.423263 464.568 0.126931 464.822 0.126931C464.991 0.0422659 465.118 0.169267 465.203 0.507934C465.288 0.761931 465.415 0.931262 465.584 1.01593C467.447 5.07993 468.293 9.56726 468.124 14.4779C467.955 19.3039 467.193 24.3416 465.838 29.5909C464.568 34.8403 463.002 40.1743 461.139 45.5929C459.276 50.9269 457.668 56.1339 456.313 61.2139C455.382 64.5159 454.704 68.0719 454.281 71.8819C453.942 75.6073 454.154 79.2903 454.916 82.9309C455.678 86.7409 457.202 89.9583 459.488 92.5829C461.859 95.2076 464.526 96.6893 467.489 97.0279ZM463.679 90.6779C465.372 92.7946 467.447 93.9799 469.902 94.2339C470.664 94.4033 470.876 94.6573 470.537 94.9959C470.283 95.2499 469.902 95.3769 469.394 95.3769C467.955 95.3769 466.515 95.2076 465.076 94.8689C463.721 94.5303 462.367 93.5989 461.012 92.0749C460.335 91.2283 459.742 90.0853 459.234 88.6459C458.726 87.1219 458.345 85.6403 458.091 84.2009C457.837 82.7616 457.71 81.4916 457.71 80.3909C457.71 79.2903 457.879 78.7399 458.218 78.7399C458.303 78.7399 458.43 78.9939 458.599 79.5019C458.768 79.9253 458.938 80.4333 459.107 81.0259C459.276 81.5339 459.446 82.0843 459.615 82.6769C459.784 83.1849 459.911 83.5659 459.996 83.8199C460.927 86.6139 462.155 88.8999 463.679 90.6779ZM516.385 62.2299C516.639 59.9439 516.681 57.5309 516.512 54.9909C516.343 52.4509 515.792 50.1226 514.861 48.0059C514.014 45.8046 512.66 43.9843 510.797 42.5449C509.019 41.1056 506.648 40.3859 503.685 40.3859C499.706 40.3859 496.234 41.4866 493.271 43.6879C490.308 45.8046 487.768 48.4716 485.651 51.6889C483.534 54.8216 481.883 58.2083 480.698 61.8489C479.513 65.4049 478.751 68.6646 478.412 71.6279C477.904 75.6919 477.819 79.2056 478.158 82.1689C478.581 85.1323 479.301 87.5876 480.317 89.5349C481.333 91.3976 482.603 92.7946 484.127 93.7259C485.736 94.6573 487.471 95.1229 489.334 95.1229C491.959 95.2076 494.71 94.4879 497.589 92.9639C500.552 91.3553 503.304 89.1539 505.844 86.3599C508.384 83.4813 510.585 80.0099 512.448 75.9459C514.395 71.7973 515.708 67.2253 516.385 62.2299ZM475.491 70.9929C475.83 67.6063 476.676 63.8809 478.031 59.8169C479.386 55.7529 481.248 51.9853 483.619 48.5139C486.074 45.0426 488.995 42.1639 492.382 39.8779C495.769 37.5073 499.706 36.3219 504.193 36.3219C507.58 36.3219 510.374 37.1263 512.575 38.7349C514.776 40.3436 516.47 42.4179 517.655 44.9579C518.84 47.4133 519.602 50.1226 519.941 53.0859C520.28 55.9646 520.28 58.7163 519.941 61.3409C519.179 67.4369 517.697 72.7286 515.496 77.2159C513.295 81.7033 510.712 85.4709 507.749 88.5189C504.786 91.4823 501.653 93.7259 498.351 95.2499C495.049 96.6893 491.874 97.4089 488.826 97.4089C486.54 97.4089 484.466 96.9009 482.603 95.8849C480.825 94.8689 479.301 93.3026 478.031 91.1859C476.846 88.9846 475.999 86.2329 475.491 82.9309C475.068 79.5443 475.068 75.5649 475.491 70.9929ZM489.715 88.8999C489.292 88.8999 488.868 88.7729 488.445 88.5189C488.022 88.1803 487.683 87.7993 487.429 87.3759C487.175 86.9526 487.006 86.5293 486.921 86.1059C486.836 85.6826 487.006 85.3863 487.429 85.2169C487.683 85.1323 488.022 85.4286 488.445 86.1059C488.868 86.7833 489.334 87.1219 489.842 87.1219C490.689 87.1219 491.662 86.5716 492.763 85.4709C493.948 84.3703 495.049 83.1003 496.065 81.6609C497.166 80.1369 498.097 78.6553 498.859 77.2159C499.706 75.7766 500.298 74.7183 500.637 74.0409C500.976 73.3636 501.314 72.5169 501.653 71.5009C501.992 70.4003 502.288 69.2996 502.542 68.1989C502.881 67.0983 503.135 66.0399 503.304 65.0239C503.558 63.9233 503.727 62.9919 503.812 62.2299C504.235 58.4199 504.151 55.4989 503.558 53.4669C502.965 51.3503 501.992 50.2919 500.637 50.2919C499.621 50.2919 498.563 50.6306 497.462 51.3079C496.361 51.9006 495.303 52.7049 494.287 53.7209C493.356 54.7369 492.509 55.8799 491.747 57.1499C490.985 58.3353 490.435 59.5629 490.096 60.8329C489.673 62.2723 489.376 62.9919 489.207 62.9919C488.953 62.9919 488.826 62.2723 488.826 60.8329C489.08 59.2243 489.63 57.6579 490.477 56.1339C491.324 54.5253 492.382 53.1283 493.652 51.9429C494.922 50.6729 496.319 49.6569 497.843 48.8949C499.367 48.0483 500.933 47.6249 502.542 47.6249C504.151 47.6249 505.336 48.2176 506.098 49.4029C506.945 50.5036 507.537 51.9006 507.876 53.5939C508.215 55.2026 508.342 56.8959 508.257 58.6739C508.257 60.3673 508.172 61.7219 508.003 62.7379C507.664 65.0239 507.114 67.2676 506.352 69.4689C505.675 71.5856 504.828 73.7446 503.812 75.9459C503.304 76.9619 502.542 78.2319 501.526 79.7559C500.51 81.1953 499.325 82.5923 497.97 83.9469C496.7 85.3016 495.303 86.4869 493.779 87.5029C492.34 88.4343 490.985 88.8999 489.715 88.8999ZM493.779 91.3129C493.864 91.8209 493.44 92.2443 492.509 92.5829C491.662 92.9216 490.773 93.0909 489.842 93.0909C487.217 93.0063 485.185 92.1596 483.746 90.5509C482.391 88.9423 481.418 87.0373 480.825 84.8359C480.317 82.6346 480.063 80.3486 480.063 77.9779C480.148 75.6073 480.275 73.6176 480.444 72.0089C480.783 69.2149 481.46 66.0823 482.476 62.6109C483.492 59.1396 484.931 55.8799 486.794 52.8319C488.657 49.7839 490.943 47.2439 493.652 45.2119C496.361 43.0953 499.579 42.0369 503.304 42.0369C505.759 42.0369 507.707 42.6719 509.146 43.9419C510.67 45.2119 511.771 46.7783 512.448 48.6409C513.21 50.5036 513.633 52.5356 513.718 54.7369C513.887 56.8536 513.845 58.8009 513.591 60.5789C513.422 62.5263 513.125 64.3043 512.702 65.9129C512.279 67.5216 511.686 69.2996 510.924 71.2469C510.67 71.8396 510.331 72.5169 509.908 73.2789C509.485 74.0409 509.019 74.3796 508.511 74.2949C508.257 74.2103 508.172 73.8716 508.257 73.2789C508.426 72.6863 508.596 71.9666 508.765 71.1199C509.019 70.1886 509.273 69.2573 509.527 68.3259C509.781 67.3099 509.95 66.3786 510.035 65.5319C510.204 64.0926 510.289 62.3146 510.289 60.1979C510.374 57.9966 510.204 55.8799 509.781 53.8479C509.442 51.8159 508.765 50.0803 507.749 48.6409C506.733 47.2016 505.209 46.4819 503.177 46.4819C500.214 46.4819 497.462 47.4556 494.922 49.4029C492.467 51.2656 490.308 53.5939 488.445 56.3879C486.582 59.0973 485.058 61.9759 483.873 65.0239C482.772 67.9873 482.095 70.6119 481.841 72.8979C481.672 74.2526 481.629 75.9459 481.714 77.9779C481.799 80.0099 482.095 82.0419 482.603 84.0739C483.196 86.0213 484.127 87.7146 485.397 89.1539C486.667 90.5933 488.403 91.3553 490.604 91.4399C491.281 91.5246 491.916 91.4823 492.509 91.3129C493.186 91.0589 493.61 91.0589 493.779 91.3129Z" fill="#0A4E67"/>
<path d="M66.7655 114.909H64.5638C64.4336 114.276 64.2057 113.719 63.8802 113.24C63.5606 112.76 63.17 112.358 62.7083 112.033C62.2526 111.701 61.7466 111.452 61.1902 111.287C60.6339 111.121 60.0538 111.038 59.4502 111.038C58.3493 111.038 57.352 111.316 56.4583 111.873C55.5705 112.429 54.8633 113.249 54.3365 114.332C53.8157 115.415 53.5553 116.744 53.5553 118.318C53.5553 119.892 53.8157 121.221 54.3365 122.304C54.8633 123.387 55.5705 124.207 56.4583 124.763C57.352 125.32 58.3493 125.598 59.4502 125.598C60.0538 125.598 60.6339 125.515 61.1902 125.349C61.7466 125.184 62.2526 124.938 62.7083 124.612C63.17 124.281 63.5606 123.876 63.8802 123.396C64.2057 122.911 64.4336 122.354 64.5638 121.727H66.7655C66.5998 122.656 66.2979 123.488 65.86 124.222C65.422 124.956 64.8775 125.58 64.2264 126.095C63.5754 126.604 62.8444 126.992 62.0336 127.258C61.2287 127.524 60.3675 127.658 59.4502 127.658C57.8995 127.658 56.5205 127.279 55.3131 126.521C54.1057 125.764 53.1558 124.686 52.4633 123.29C51.7708 121.893 51.4246 120.236 51.4246 118.318C51.4246 116.4 51.7708 114.743 52.4633 113.346C53.1558 111.95 54.1057 110.872 55.3131 110.115C56.5205 109.357 57.8995 108.979 59.4502 108.979C60.3675 108.979 61.2287 109.112 62.0336 109.378C62.8444 109.644 63.5754 110.035 64.2264 110.55C64.8775 111.059 65.422 111.68 65.86 112.414C66.2979 113.142 66.5998 113.974 66.7655 114.909ZM71.069 127.409H68.7608L75.4369 109.227H77.7097L84.3858 127.409H82.0775L76.6443 112.104H76.5023L71.069 127.409ZM71.9213 120.307H81.2253V122.26H71.9213V120.307ZM75.6145 107.381L77.7807 103.261H80.231L77.4611 107.381H75.6145ZM87.2178 127.409V109.227H89.4195V125.456H97.8712V127.409H87.2178ZM115.203 114.909H113.001C112.871 114.276 112.643 113.719 112.318 113.24C111.998 112.76 111.607 112.358 111.146 112.033C110.69 111.701 110.184 111.452 109.628 111.287C109.071 111.121 108.491 111.038 107.888 111.038C106.787 111.038 105.79 111.316 104.896 111.873C104.008 112.429 103.301 113.249 102.774 114.332C102.253 115.415 101.993 116.744 101.993 118.318C101.993 119.892 102.253 121.221 102.774 122.304C103.301 123.387 104.008 124.207 104.896 124.763C105.79 125.32 106.787 125.598 107.888 125.598C108.491 125.598 109.071 125.515 109.628 125.349C110.184 125.184 110.69 124.938 111.146 124.612C111.607 124.281 111.998 123.876 112.318 123.396C112.643 122.911 112.871 122.354 113.001 121.727H115.203C115.037 122.656 114.735 123.488 114.297 124.222C113.859 124.956 113.315 125.58 112.664 126.095C112.013 126.604 111.282 126.992 110.471 127.258C109.666 127.524 108.805 127.658 107.888 127.658C106.337 127.658 104.958 127.279 103.751 126.521C102.543 125.764 101.593 124.686 100.901 123.29C100.208 121.893 99.8621 120.236 99.8621 118.318C99.8621 116.4 100.208 114.743 100.901 113.346C101.593 111.95 102.543 110.872 103.751 110.115C104.958 109.357 106.337 108.979 107.888 108.979C108.805 108.979 109.666 109.112 110.471 109.378C111.282 109.644 112.013 110.035 112.664 110.55C113.315 111.059 113.859 111.68 114.297 112.414C114.735 113.142 115.037 113.974 115.203 114.909ZM130.693 109.227H132.894V121.265C132.894 122.508 132.601 123.618 132.015 124.595C131.435 125.565 130.616 126.332 129.556 126.894C128.497 127.45 127.254 127.729 125.828 127.729C124.401 127.729 123.158 127.45 122.099 126.894C121.039 126.332 120.217 125.565 119.631 124.595C119.051 123.618 118.761 122.508 118.761 121.265V109.227H120.962V121.088C120.962 121.976 121.158 122.766 121.548 123.458C121.939 124.145 122.495 124.686 123.217 125.083C123.945 125.474 124.815 125.669 125.828 125.669C126.84 125.669 127.71 125.474 128.438 125.083C129.166 124.686 129.722 124.145 130.107 123.458C130.497 122.766 130.693 121.976 130.693 121.088V109.227ZM137.291 127.409V109.227H139.493V125.456H147.944V127.409H137.291ZM165.986 118.318C165.986 120.236 165.64 121.893 164.948 123.29C164.255 124.686 163.305 125.764 162.098 126.521C160.891 127.279 159.512 127.658 157.961 127.658C156.41 127.658 155.031 127.279 153.824 126.521C152.616 125.764 151.667 124.686 150.974 123.29C150.282 121.893 149.935 120.236 149.935 118.318C149.935 116.4 150.282 114.743 150.974 113.346C151.667 111.95 152.616 110.872 153.824 110.115C155.031 109.357 156.41 108.979 157.961 108.979C159.512 108.979 160.891 109.357 162.098 110.115C163.305 110.872 164.255 111.95 164.948 113.346C165.64 114.743 165.986 116.4 165.986 118.318ZM163.856 118.318C163.856 116.744 163.592 115.415 163.066 114.332C162.545 113.249 161.838 112.429 160.944 111.873C160.056 111.316 159.062 111.038 157.961 111.038C156.86 111.038 155.863 111.316 154.969 111.873C154.081 112.429 153.374 113.249 152.847 114.332C152.326 115.415 152.066 116.744 152.066 118.318C152.066 119.892 152.326 121.221 152.847 122.304C153.374 123.387 154.081 124.207 154.969 124.763C155.863 125.32 156.86 125.598 157.961 125.598C159.062 125.598 160.056 125.32 160.944 124.763C161.838 124.207 162.545 123.387 163.066 122.304C163.592 121.221 163.856 119.892 163.856 118.318ZM182.331 127.409H176.72V109.227H182.579C184.343 109.227 185.852 109.591 187.107 110.319C188.362 111.041 189.323 112.08 189.992 113.435C190.661 114.785 190.995 116.4 190.995 118.283C190.995 120.176 190.658 121.807 189.983 123.174C189.309 124.535 188.326 125.583 187.036 126.317C185.746 127.045 184.177 127.409 182.331 127.409ZM178.921 125.456H182.189C183.692 125.456 184.938 125.166 185.926 124.586C186.914 124.006 187.651 123.18 188.137 122.109C188.622 121.038 188.865 119.762 188.865 118.283C188.865 116.815 188.625 115.551 188.146 114.492C187.666 113.426 186.95 112.61 185.997 112.041C185.044 111.467 183.858 111.18 182.437 111.18H178.921V125.456ZM194.689 127.409V109.227H205.662V111.18H196.89V117.324H205.093V119.277H196.89V125.456H205.804V127.409H194.689ZM215.667 111.18V109.227H229.303V111.18H223.586V127.409H221.384V111.18H215.667ZM232.701 127.409V109.227H243.674V111.18H234.903V117.324H243.106V119.277H234.903V125.456H243.816V127.409H232.701ZM247.643 127.409V109.227H249.844V125.456H258.296V127.409H247.643ZM263.598 127.409H261.29L267.966 109.227H270.239L276.915 127.409H274.607L269.174 112.104H269.032L263.598 127.409ZM264.451 120.307H273.755V122.26H264.451V120.307ZM289.69 113.773C289.584 112.873 289.152 112.175 288.394 111.677C287.637 111.18 286.707 110.932 285.606 110.932C284.802 110.932 284.097 111.062 283.494 111.322C282.896 111.583 282.428 111.941 282.091 112.397C281.759 112.852 281.594 113.37 281.594 113.95C281.594 114.435 281.709 114.853 281.94 115.202C282.177 115.545 282.479 115.832 282.845 116.063C283.212 116.288 283.597 116.474 284 116.622C284.402 116.764 284.772 116.88 285.109 116.969L286.956 117.466C287.429 117.59 287.956 117.762 288.536 117.981C289.122 118.2 289.681 118.499 290.214 118.877C290.753 119.25 291.197 119.73 291.546 120.316C291.895 120.901 292.07 121.621 292.07 122.473C292.07 123.455 291.812 124.343 291.297 125.136C290.788 125.929 290.042 126.56 289.06 127.027C288.083 127.495 286.897 127.729 285.5 127.729C284.198 127.729 283.07 127.518 282.117 127.098C281.171 126.678 280.425 126.092 279.88 125.34C279.342 124.589 279.037 123.716 278.966 122.721H281.239C281.298 123.408 281.529 123.976 281.931 124.426C282.339 124.87 282.854 125.201 283.476 125.42C284.103 125.633 284.778 125.74 285.5 125.74C286.34 125.74 287.095 125.604 287.764 125.332C288.433 125.053 288.962 124.669 289.353 124.177C289.744 123.68 289.939 123.1 289.939 122.437C289.939 121.834 289.77 121.342 289.433 120.964C289.095 120.585 288.652 120.277 288.101 120.04C287.551 119.804 286.956 119.596 286.317 119.419L284.08 118.78C282.659 118.371 281.535 117.788 280.706 117.031C279.877 116.273 279.463 115.282 279.463 114.057C279.463 113.039 279.738 112.151 280.289 111.393C280.845 110.63 281.591 110.038 282.526 109.618C283.467 109.192 284.517 108.979 285.678 108.979C286.849 108.979 287.891 109.189 288.803 109.609C289.714 110.023 290.436 110.591 290.969 111.313C291.507 112.035 291.791 112.855 291.821 113.773H289.69ZM308.332 127.409H302.721V109.227H308.58C310.344 109.227 311.853 109.591 313.108 110.319C314.363 111.041 315.324 112.08 315.993 113.435C316.662 114.785 316.996 116.4 316.996 118.283C316.996 120.176 316.659 121.807 315.984 123.174C315.31 124.535 314.327 125.583 313.037 126.317C311.747 127.045 310.178 127.409 308.332 127.409ZM304.922 125.456H308.189C309.693 125.456 310.939 125.166 311.927 124.586C312.915 124.006 313.652 123.18 314.138 122.109C314.623 121.038 314.866 119.762 314.866 118.283C314.866 116.815 314.626 115.551 314.147 114.492C313.667 113.426 312.951 112.61 311.998 112.041C311.045 111.467 309.859 111.18 308.438 111.18H304.922V125.456ZM320.689 127.409V109.227H331.663V111.18H322.891V117.324H331.094V119.277H322.891V125.456H331.805V127.409H320.689ZM357.293 114.909H355.091C354.961 114.276 354.733 113.719 354.408 113.24C354.088 112.76 353.697 112.358 353.236 112.033C352.78 111.701 352.274 111.452 351.718 111.287C351.161 111.121 350.581 111.038 349.977 111.038C348.877 111.038 347.879 111.316 346.986 111.873C346.098 112.429 345.391 113.249 344.864 114.332C344.343 115.415 344.083 116.744 344.083 118.318C344.083 119.892 344.343 121.221 344.864 122.304C345.391 123.387 346.098 124.207 346.986 124.763C347.879 125.32 348.877 125.598 349.977 125.598C350.581 125.598 351.161 125.515 351.718 125.349C352.274 125.184 352.78 124.938 353.236 124.612C353.697 124.281 354.088 123.876 354.408 123.396C354.733 122.911 354.961 122.354 355.091 121.727H357.293C357.127 122.656 356.825 123.488 356.387 124.222C355.949 124.956 355.405 125.58 354.754 126.095C354.103 126.604 353.372 126.992 352.561 127.258C351.756 127.524 350.895 127.658 349.977 127.658C348.427 127.658 347.048 127.279 345.84 126.521C344.633 125.764 343.683 124.686 342.991 123.29C342.298 121.893 341.952 120.236 341.952 118.318C341.952 116.4 342.298 114.743 342.991 113.346C343.683 111.95 344.633 110.872 345.84 110.115C347.048 109.357 348.427 108.979 349.977 108.979C350.895 108.979 351.756 109.112 352.561 109.378C353.372 109.644 354.103 110.035 354.754 110.55C355.405 111.059 355.949 111.68 356.387 112.414C356.825 113.142 357.127 113.974 357.293 114.909ZM376.192 118.318C376.192 120.236 375.845 121.893 375.153 123.29C374.46 124.686 373.51 125.764 372.303 126.521C371.096 127.279 369.717 127.658 368.166 127.658C366.615 127.658 365.236 127.279 364.029 126.521C362.822 125.764 361.872 124.686 361.179 123.29C360.487 121.893 360.14 120.236 360.14 118.318C360.14 116.4 360.487 114.743 361.179 113.346C361.872 111.95 362.822 110.872 364.029 110.115C365.236 109.357 366.615 108.979 368.166 108.979C369.717 108.979 371.096 109.357 372.303 110.115C373.51 110.872 374.46 111.95 375.153 113.346C375.845 114.743 376.192 116.4 376.192 118.318ZM374.061 118.318C374.061 116.744 373.797 115.415 373.271 114.332C372.75 113.249 372.043 112.429 371.149 111.873C370.261 111.316 369.267 111.038 368.166 111.038C367.065 111.038 366.068 111.316 365.174 111.873C364.286 112.429 363.579 113.249 363.052 114.332C362.532 115.415 362.271 116.744 362.271 118.318C362.271 119.892 362.532 121.221 363.052 122.304C363.579 123.387 364.286 124.207 365.174 124.763C366.068 125.32 367.065 125.598 368.166 125.598C369.267 125.598 370.261 125.32 371.149 124.763C372.043 124.207 372.75 123.387 373.271 122.304C373.797 121.221 374.061 119.892 374.061 118.318ZM379.894 127.409V109.227H386.037C387.458 109.227 388.623 109.47 389.535 109.955C390.446 110.435 391.121 111.094 391.559 111.935C391.997 112.775 392.216 113.731 392.216 114.802C392.216 115.874 391.997 116.824 391.559 117.652C391.121 118.481 390.449 119.132 389.544 119.605C388.638 120.073 387.481 120.307 386.073 120.307H381.101V118.318H386.002C386.972 118.318 387.753 118.176 388.345 117.892C388.943 117.608 389.375 117.205 389.641 116.685C389.914 116.158 390.05 115.53 390.05 114.802C390.05 114.074 389.914 113.438 389.641 112.894C389.369 112.349 388.934 111.929 388.336 111.633C387.739 111.331 386.949 111.18 385.966 111.18H382.095V127.409H379.894ZM388.452 119.241L392.926 127.409H390.369L385.966 119.241H388.452ZM394.89 111.18V109.227H408.527V111.18H402.81V127.409H400.608V111.18H394.89ZM414.127 109.227V127.409H411.925V109.227H414.127ZM432.959 109.227V127.409H430.828L420.92 113.133H420.743V127.409H418.541V109.227H420.672L430.615 123.538H430.792V109.227H432.959ZM438.11 127.409H435.802L442.478 109.227H444.751L451.427 127.409H449.119L443.685 112.104H443.543L438.11 127.409ZM438.962 120.307H448.266V122.26H438.962V120.307ZM464.202 113.773C464.095 112.873 463.663 112.175 462.906 111.677C462.148 111.18 461.219 110.932 460.118 110.932C459.313 110.932 458.609 111.062 458.005 111.322C457.408 111.583 456.94 111.941 456.603 112.397C456.271 112.852 456.105 113.37 456.105 113.95C456.105 114.435 456.221 114.853 456.452 115.202C456.688 115.545 456.99 115.832 457.357 116.063C457.724 116.288 458.109 116.474 458.511 116.622C458.914 116.764 459.284 116.88 459.621 116.969L461.468 117.466C461.941 117.59 462.468 117.762 463.048 117.981C463.634 118.2 464.193 118.499 464.726 118.877C465.264 119.25 465.708 119.73 466.057 120.316C466.407 120.901 466.581 121.621 466.581 122.473C466.581 123.455 466.324 124.343 465.809 125.136C465.3 125.929 464.554 126.56 463.572 127.027C462.595 127.495 461.408 127.729 460.012 127.729C458.71 127.729 457.582 127.518 456.629 127.098C455.682 126.678 454.937 126.092 454.392 125.34C453.853 124.589 453.549 123.716 453.478 122.721H455.75C455.809 123.408 456.04 123.976 456.443 124.426C456.851 124.87 457.366 125.201 457.988 125.42C458.615 125.633 459.29 125.74 460.012 125.74C460.852 125.74 461.607 125.604 462.276 125.332C462.944 125.053 463.474 124.669 463.865 124.177C464.255 123.68 464.451 123.1 464.451 122.437C464.451 121.834 464.282 121.342 463.945 120.964C463.607 120.585 463.163 120.277 462.613 120.04C462.062 119.804 461.468 119.596 460.828 119.419L458.591 118.78C457.171 118.371 456.046 117.788 455.218 117.031C454.389 116.273 453.975 115.282 453.975 114.057C453.975 113.039 454.25 112.151 454.8 111.393C455.357 110.63 456.102 110.038 457.038 109.618C457.979 109.192 459.029 108.979 460.189 108.979C461.361 108.979 462.403 109.189 463.314 109.609C464.226 110.023 464.948 110.591 465.48 111.313C466.019 112.035 466.303 112.855 466.333 113.773H464.202Z" fill="#053F53"/>
</svg>
